<?xml version="1.0" standalone="no"?>
<!DOCTYPE svg PUBLIC "-//W3C//DTD SVG 20010904//EN"
 "http://www.w3.org/TR/2001/REC-SVG-20010904/DTD/svg10.dtd">
<svg version="1.0" xmlns="http://www.w3.org/2000/svg"
 width="546.000000pt" height="442.000000pt" viewBox="0 0 546.000000 442.000000"
 preserveAspectRatio="xMidYMid meet">
<metadata>
Created by potrace 1.16, written by Peter Selinger 2001-2019
</metadata>
<g transform="translate(0.000000,442.000000) scale(0.100000,-0.100000)"
fill="#000000" stroke="none">
<path d="M3597 4380 c-57 -50 -92 -133 -83 -196 l5 -41 -92 -27 c-286 -85
-341 -102 -428 -132 -163 -55 -213 -86 -332 -203 -60 -58 -121 -126 -135 -151
-15 -25 -66 -103 -115 -175 -48 -71 -122 -181 -164 -244 -43 -62 -107 -148
-143 -190 -102 -118 -228 -278 -305 -385 -38 -54 -95 -133 -126 -175 -135
-184 -241 -377 -270 -489 -11 -47 -21 -60 -74 -104 -99 -83 -516 -524 -607
-643 -63 -82 -72 -103 -57 -121 14 -17 77 -18 130 -2 22 6 41 9 44 6 3 -3 -15
-51 -40 -108 -33 -73 -45 -113 -43 -139 3 -33 6 -36 38 -41 32 -5 35 -8 38
-41 6 -72 -16 -78 -333 -78 -116 0 -242 -5 -280 -12 -39 -6 -103 -13 -142 -16
-71 -5 -73 -6 -73 -32 0 -17 10 -37 28 -52 36 -33 185 -129 200 -129 7 0 12
-7 12 -15 0 -8 -7 -15 -15 -15 -33 0 -75 -30 -75 -53 0 -27 66 -80 150 -122
69 -34 66 -30 50 -60 -12 -23 -11 -28 16 -56 49 -52 229 -129 300 -129 28 0
107 57 133 95 24 36 41 45 41 22 0 -15 41 -57 55 -57 5 0 72 62 150 139 110
109 154 145 205 170 36 17 90 52 120 76 30 24 89 70 130 101 41 31 89 70 106
87 23 21 38 27 52 22 15 -4 31 4 60 30 45 40 57 43 72 15 15 -28 25 -26 78 23
26 24 77 62 114 86 84 53 118 101 118 163 0 73 36 77 65 6 15 -38 15 -45 -5
-124 -22 -88 -23 -125 -3 -131 19 -7 146 126 167 175 19 42 46 57 46 26 0 -30
61 -9 98 33 67 76 95 139 100 225 5 91 18 100 54 36 46 -85 113 -46 147 85
l16 62 40 3 c78 6 104 51 105 179 0 75 10 84 115 102 105 19 187 50 218 82 23
25 27 38 27 84 0 31 -9 76 -21 106 -11 29 -19 64 -17 78 3 23 10 27 78 41 109
22 120 31 120 106 0 52 -8 79 -48 170 -27 60 -63 131 -80 159 -17 27 -28 53
-26 57 3 4 20 8 39 8 45 0 65 22 65 73 0 35 -35 155 -64 218 -6 13 6 21 60 40
42 15 74 34 86 50 l20 26 -31 60 c-16 33 -42 74 -57 92 -24 29 -26 34 -13 58
19 35 36 39 63 14 12 -11 25 -21 28 -21 21 0 44 202 29 256 -6 21 -7 42 -2 47
5 5 57 13 117 18 59 5 133 16 163 25 31 8 88 23 128 33 82 21 119 41 135 77
10 21 17 24 68 24 32 0 90 7 129 16 l71 16 68 -38 c47 -28 68 -46 70 -62 3
-22 26 -30 37 -12 9 15 51 12 65 -5 9 -11 9 -22 1 -46 -12 -36 -8 -49 19 -49
10 0 22 -5 25 -10 5 -8 11 -7 21 1 18 15 44 5 44 -17 0 -9 11 -27 25 -40 16
-15 25 -34 25 -53 0 -29 1 -30 40 -26 30 3 40 0 40 -11 0 -8 7 -14 15 -14 20
0 18 -20 -5 -50 -26 -33 -25 -40 5 -40 16 0 25 -6 25 -15 0 -8 6 -15 14 -15 7
0 16 -9 19 -20 3 -12 14 -20 26 -20 12 0 31 -10 43 -22 19 -19 20 -22 5 -33
-22 -16 -21 -28 3 -50 28 -25 25 -37 -13 -56 -41 -20 -41 -39 2 -54 47 -15 49
-31 7 -45 -46 -15 -66 -38 -46 -54 8 -6 16 -28 17 -48 2 -31 -1 -37 -20 -40
-19 -3 -22 -9 -21 -46 1 -41 -1 -43 -23 -37 -30 7 -54 -36 -35 -63 7 -9 15
-24 18 -34 4 -11 23 -18 64 -23 56 -7 88 -24 77 -43 -3 -4 4 -26 16 -47 29
-51 83 -65 159 -40 101 33 208 167 253 317 17 58 20 230 6 319 -22 133 -139
324 -328 536 -48 54 -99 112 -113 128 -14 17 -59 57 -100 90 -41 33 -95 78
-120 101 -25 23 -85 64 -135 92 -151 84 -155 86 -155 106 0 59 -108 184 -185
214 -83 32 -185 37 -337 16 -46 -6 -47 -6 -101 50 l-55 56 -80 0 c-78 0 -80 0
-125 -40z"/>
</g>
</svg>
