<?xml version="1.0" encoding="UTF-8" standalone="no"?>
<!-- Created with Inkscape (http://www.inkscape.org/) -->

<svg
   width="209.36722mm"
   height="126.37959mm"
   viewBox="0 0 209.36722 126.37959"
   version="1.1"
   id="svg1"
   xml:space="preserve"
   inkscape:version="1.3.2 (091e20e, 2023-11-25, custom)"
   sodipodi:docname="anthropornis_coloured.svg"
   xmlns:inkscape="http://www.inkscape.org/namespaces/inkscape"
   xmlns:sodipodi="http://sodipodi.sourceforge.net/DTD/sodipodi-0.dtd"
   xmlns="http://www.w3.org/2000/svg"
   xmlns:svg="http://www.w3.org/2000/svg"><sodipodi:namedview
     id="namedview1"
     pagecolor="#ffffff"
     bordercolor="#999999"
     borderopacity="1"
     inkscape:showpageshadow="0"
     inkscape:pageopacity="0"
     inkscape:pagecheckerboard="0"
     inkscape:deskcolor="#d1d1d1"
     inkscape:document-units="mm"
     inkscape:zoom="1.3398429"
     inkscape:cx="454.15773"
     inkscape:cy="84.338248"
     inkscape:window-width="2880"
     inkscape:window-height="1721"
     inkscape:window-x="2869"
     inkscape:window-y="-11"
     inkscape:window-maximized="1"
     inkscape:current-layer="layer1" /><defs
     id="defs1"><filter
       style="color-interpolation-filters:sRGB"
       inkscape:label="Drop Shadow"
       id="filter2"
       x="-0.074892208"
       y="-0.024728576"
       width="1.3058099"
       height="1.100975"><feFlood
         result="flood"
         in="SourceGraphic"
         flood-opacity="0.698039"
         flood-color="rgb(228,228,228)"
         id="feFlood1" /><feGaussianBlur
         result="blur"
         in="SourceGraphic"
         stdDeviation="0.800000"
         id="feGaussianBlur1" /><feOffset
         result="offset"
         in="blur"
         dx="4.000000"
         dy="4.000000"
         id="feOffset1" /><feComposite
         result="comp1"
         operator="in"
         in="flood"
         in2="offset"
         id="feComposite1" /><feComposite
         result="fbSourceGraphic"
         operator="over"
         in="SourceGraphic"
         in2="comp1"
         id="feComposite2" /><feColorMatrix
         result="fbSourceGraphicAlpha"
         in="fbSourceGraphic"
         values="0 0 0 -1 0 0 0 0 -1 0 0 0 0 -1 0 0 0 0 1 0"
         id="feColorMatrix2" /><feFlood
         id="feFlood2"
         result="flood"
         in="fbSourceGraphic"
         flood-opacity="0.698039"
         flood-color="rgb(228,228,228)" /><feGaussianBlur
         id="feGaussianBlur2"
         result="blur"
         in="fbSourceGraphic"
         stdDeviation="0.800000" /><feOffset
         id="feOffset2"
         result="offset"
         in="blur"
         dx="4.000000"
         dy="4.000000" /><feComposite
         id="feComposite3"
         result="comp1"
         operator="in"
         in="flood"
         in2="offset" /><feComposite
         id="feComposite4"
         result="comp2"
         operator="over"
         in="fbSourceGraphic"
         in2="comp1" /></filter><filter
       style="color-interpolation-filters:sRGB"
       inkscape:label="Drop Shadow"
       id="filter8"
       x="-0.23091763"
       y="-0.024728575"
       width="1.3058098"
       height="1.100975"><feFlood
         result="flood"
         in="SourceGraphic"
         flood-opacity="0.698039"
         flood-color="rgb(228,228,228)"
         id="feFlood7" /><feGaussianBlur
         result="blur"
         in="SourceGraphic"
         stdDeviation="0.800000"
         id="feGaussianBlur7" /><feOffset
         result="offset"
         in="blur"
         dx="-4.000000"
         dy="4.000000"
         id="feOffset7" /><feComposite
         result="comp1"
         operator="in"
         in="flood"
         in2="offset"
         id="feComposite7" /><feComposite
         result="fbSourceGraphic"
         operator="over"
         in="SourceGraphic"
         in2="comp1"
         id="feComposite8" /><feColorMatrix
         result="fbSourceGraphicAlpha"
         in="fbSourceGraphic"
         values="0 0 0 -1 0 0 0 0 -1 0 0 0 0 -1 0 0 0 0 1 0"
         id="feColorMatrix8" /><feFlood
         id="feFlood8"
         result="flood"
         in="fbSourceGraphic"
         flood-opacity="0.698039"
         flood-color="rgb(228,228,228)" /><feGaussianBlur
         id="feGaussianBlur8"
         result="blur"
         in="fbSourceGraphic"
         stdDeviation="0.800000" /><feOffset
         id="feOffset8"
         result="offset"
         in="blur"
         dx="-4.000000"
         dy="4.000000" /><feComposite
         id="feComposite9"
         result="comp1"
         operator="in"
         in="flood"
         in2="offset" /><feComposite
         id="feComposite10"
         result="comp2"
         operator="over"
         in="fbSourceGraphic"
         in2="comp1" /></filter></defs><g
     inkscape:label="Ebene 1"
     inkscape:groupmode="layer"
     id="layer1"
     transform="translate(-1.8056493,-75.673322)"><g
       transform="matrix(-0.30665669,-1.1045207,-1.1045207,0.30665669,387.27968,283.04929)"
       id="g2346"
       style="fill:#6d3f2f;fill-opacity:1;stroke:none;filter:url(#filter8)"><path
         sodipodi:nodetypes="csssssssssscccccccssssssssc"
         inkscape:connector-curvature="0"
         id="path2338"
         d="m 174.31952,139.69449 c -0.18338,0.3057 5.67229,3.33914 7.14514,5.35627 1.80704,2.47484 3.19764,5.63877 4.21563,7.56779 1.77076,3.35542 3.94469,8.15892 5.37648,11.67239 2.02006,4.95713 3.13815,6.99906 5.75168,11.91338 1.35035,2.53911 3.04235,4.89134 4.32342,7.46609 3.67193,7.38002 6.53847,14.31841 8.43825,21.63849 2.9084,11.20654 3.74652,15.33628 4.813,26.86486 0.447,4.83206 0.74249,9.10735 0.65749,14.15555 -0.0289,1.72421 0.0805,4.78525 0.0429,7.95137 -0.0245,2.05071 0.0506,4.0363 0.26685,6.07573 0.31342,2.95628 1.01561,6.82878 1.01561,6.82878 l -1.22804,-1.15993 0.66971,1.05145 -1.95418,-2.16536 0.79219,1.37448 -4.71547,-3.50231 0.19377,0.64082 c 0,0 -3.75638,-2.69006 -5.72413,-4.25678 -2.29505,-1.82733 -5.94904,-4.03684 -8.02113,-7.05619 -3.43063,-4.99896 -6.00089,-8.77942 -8.63894,-14.367 -5.64438,-11.95523 -10.60354,-20.37555 -14.33892,-36.97938 -1.00642,-4.47357 -1.65628,-11.04761 -2.25869,-16.59902 -0.38387,-3.53752 -0.57547,-6.99798 -0.90542,-10.54094 -0.52249,-5.61046 -0.51231,-9.50115 -1.23919,-15.36133 -0.50543,-4.07482 -0.73233,-8.57581 -1.09628,-11.63534 -0.58561,-4.92289 -1.18147,-14.19539 -1.18147,-14.19539"
         style="color:#000000;clip-rule:nonzero;display:inline;overflow:visible;visibility:visible;opacity:1;isolation:auto;mix-blend-mode:normal;color-interpolation:sRGB;color-interpolation-filters:linearRGB;solid-color:#000000;solid-opacity:1;fill:#6d3f2f;fill-opacity:1;fill-rule:evenodd;stroke:none;stroke-width:0.377095;stroke-linecap:butt;stroke-linejoin:miter;stroke-miterlimit:4;stroke-dasharray:none;stroke-dashoffset:0;stroke-opacity:1;color-rendering:auto;image-rendering:auto;shape-rendering:auto;text-rendering:auto;enable-background:accumulate" /><path
         style="color:#000000;clip-rule:nonzero;display:inline;overflow:visible;visibility:visible;opacity:1;isolation:auto;mix-blend-mode:normal;color-interpolation:sRGB;color-interpolation-filters:linearRGB;solid-color:#000000;solid-opacity:1;fill:#6d3f2f;fill-opacity:1;fill-rule:evenodd;stroke:none;stroke-width:0.629981;stroke-linecap:butt;stroke-linejoin:miter;stroke-miterlimit:4;stroke-dasharray:none;stroke-dashoffset:0;stroke-opacity:1;color-rendering:auto;image-rendering:auto;shape-rendering:auto;text-rendering:auto;enable-background:accumulate"
         d="m 180.93556,187.74605 c 0,0 1.0433,13.80499 1.33186,20.71982 0.39488,9.46209 0.21925,18.94104 0.54637,28.40575 0.11743,3.3979 0.15818,6.80525 0.50824,10.18709 0.22247,2.14941 0.42952,4.32214 1.01014,6.40356 0.27428,0.9821 0.51758,2.03715 1.1562,2.83196 0.30173,0.37547 1.04327,0.78578 1.31815,0.39025 0.48514,-0.69795 0.75741,-1.06254 1.05701,-1.85794 0.94812,-2.51866 1.57247,-5.14464 2.15636,-7.77175 1.01784,-4.57642 1.62838,-9.2405 2.14522,-13.90014 0.87897,-7.9245 1.25518,-15.89958 1.62079,-23.86427 0.24928,-5.43072 0.39044,-16.30462 0.39044,-16.30462"
         id="path2340"
         inkscape:connector-curvature="0"
         sodipodi:nodetypes="cssssssssssc"
         inkscape:transform-center-x="0.34143194"
         inkscape:transform-center-y="28.563293" /><path
         inkscape:connector-curvature="0"
         id="path2342"
         d="m 190.78489,236.96373 7.07259,17.38308 c 0,0 3.73905,7.24916 4.45639,8.3038 0.65568,0.96402 1.00726,2.66877 1.45625,3.74471 0.26767,0.6414 0.52518,1.29082 0.70588,1.96194 0.27549,1.02303 0.51062,2.11376 0.83939,3.12094 0.39923,1.22109 0.90959,1.92025 1.69994,3.22455 0.0868,0.14317 0.27686,0.36599 0.44301,0.52265 0.15995,0.15055 0.30491,0.23794 0.52693,0.39573 0.31579,0.22455 0.55784,0.32012 0.94077,0.37964 0.21218,0.033 0.68761,0.0115 0.68761,0.0115 0,0 -0.6966,-0.752 -0.92957,-1.20163 -0.11512,-0.22202 -0.30605,-0.83237 -0.30605,-0.83237 l 0.0635,-0.65346 c 0,0 0.46497,0.43078 0.71261,0.54803 0.35846,0.16976 0.61917,0.30747 0.99994,0.41942 0.24288,0.0724 0.9099,-0.002 0.9099,-0.002 0,0 -0.2389,-0.27917 -0.4003,-0.41163 -0.15457,-0.12665 -0.36536,-0.36258 -0.5803,-0.70313 -0.1154,-0.18245 -0.20367,-0.64494 -0.20367,-0.64494 0,0 6.5e-4,-0.40685 -0.047,-0.67209 -0.0976,-0.55061 0.0109,-1.3566 -0.0688,-1.91019 -0.0786,-0.54596 -0.13477,-1.37132 -0.30234,-2.04161 -0.298,-1.1921 -0.61549,-2.54392 -1.02848,-3.55703 -0.61164,-1.49897 -3.004,-7.24408 -3.004,-7.24408 l -3.14582,-7.00104"
         style="color:#000000;clip-rule:nonzero;display:inline;overflow:visible;visibility:visible;opacity:1;isolation:auto;mix-blend-mode:normal;color-interpolation:sRGB;color-interpolation-filters:linearRGB;solid-color:#000000;solid-opacity:1;fill:#6d3f2f;fill-opacity:1;fill-rule:evenodd;stroke:none;stroke-width:0.332802;stroke-linecap:butt;stroke-linejoin:miter;stroke-miterlimit:4;stroke-dasharray:none;stroke-dashoffset:0;stroke-opacity:1;color-rendering:auto;image-rendering:auto;shape-rendering:auto;text-rendering:auto;enable-background:accumulate"
         sodipodi:nodetypes="cscsscsscscscccsscsssssccc"
         inkscape:transform-center-x="11.274163"
         inkscape:transform-center-y="-22.587445" /><path
         sodipodi:nodetypes="cccccccccccccccc"
         inkscape:connector-curvature="0"
         id="path2344"
         d="m 171.08608,158.35239 c 0,0 -1.00817,-0.65919 -1.26169,-1.42281 -0.25356,-0.76358 -0.9049,-3.37716 -1.62902,-8.27015 -0.72411,-4.89301 -1.80867,-17.24659 -2.22411,-19.80106 -0.41545,-2.55448 -0.97522,-6.1953 -0.86486,-6.78738 0.11042,-0.5921 0.18614,-0.85696 0.18614,-0.85696 l -0.031,-0.48082 c 0,0 0.63774,0.0981 1.39653,0.92199 0.7588,0.82389 1.74547,2.58943 2.73749,5.01387 0.99202,2.42443 3.74797,8.87631 4.95357,11.73266 1.20559,2.85636 2.81032,3.55137 2.81032,3.55137 l 3.50053,3.02407 2.9027,6.9995 -0.87166,4.04881 -2.2694,3.39618 -3.62652,1.06953"
         style="color:#000000;clip-rule:nonzero;display:inline;overflow:visible;visibility:visible;opacity:1;isolation:auto;mix-blend-mode:normal;color-interpolation:sRGB;color-interpolation-filters:linearRGB;solid-color:#000000;solid-opacity:1;fill:#6d3f2f;fill-opacity:1;fill-rule:evenodd;stroke:none;stroke-width:0.264583;stroke-linecap:butt;stroke-linejoin:miter;stroke-miterlimit:4;stroke-dasharray:none;stroke-dashoffset:0;stroke-opacity:1;color-rendering:auto;image-rendering:auto;shape-rendering:auto;text-rendering:auto;enable-background:accumulate" /></g></g></svg>
