<?xml version="1.0" encoding="UTF-8" standalone="no"?>
<svg
   width="4456.957"
   height="532.19098"
   viewBox="0 0 4456.957 532.19098"
   version="1.1"
   id="svg4"
   xmlns="http://www.w3.org/2000/svg"
   xmlns:svg="http://www.w3.org/2000/svg">
  <defs
     id="defs8" />
  <path
     d="m 1463.9958,0.46088771 c -51.975,0.371 -102.825,0.92299999 -113,1.22599999 -10.175,0.304 -36.5,1.022 -58.5,1.597 -52.767,1.379 -88.263,2.753 -103,3.985 -6.6,0.552 -24.593,1.489 -39.985,2.082 -17.424,0.6720003 -28.232,1.4780003 -28.638,2.1360003 -0.36,0.581 -1.041,0.834 -1.515,0.563 -0.474,-0.271 -11.437,0.094 -24.362,0.811 -12.925,0.718 -29.237,1.332 -36.25,1.365 -7.793,0.037 -12.75,0.45 -12.75,1.061 0,0.589 -3.54,1 -8.621,1 -4.742,0 -16.315,0.702 -25.718,1.56 -9.403,0.857 -17.87699,1.355 -18.83099,1.106 -0.954,-0.25 -1.868,-0.078 -2.032,0.382 -0.164,0.459 -9.073,1.317 -19.798,1.905 -10.725,0.588 -23.55,1.515 -28.5,2.06 -4.95,0.544 -15.696,1.433 -23.88,1.974 -8.185,0.542 -15.495,1.494 -16.245,2.117 -0.75,0.623 -2.344,0.876 -3.542,0.563 -1.197,-0.313 -6.712,0.075 -12.255,0.863 -5.543,0.789 -12.89,1.442 -16.328,1.452 -3.488,0.01 -6.25,0.46 -6.25,1.018 0,0.558 -2.763,1.009 -6.25,1.02 -3.437,0.011 -9.4,0.484 -13.25,1.051 -3.85,0.568 -9.468,1.041 -12.484,1.052 -3.016,0.011 -5.972,0.426 -6.57,0.922 -0.597,0.495 -6.905,1.351 -14.016,1.901 -7.112,0.55 -17.655,1.679 -23.43,2.509 -5.775,0.83 -12.75,1.522 -15.5,1.538 -2.75,0.016 -13.1,1.141 -23,2.5 -9.9,1.359 -21.038,2.479 -24.75,2.489 -3.712,0.01 -6.75,0.406 -6.75,0.879 0,0.474 -3.937,1.135 -8.75,1.469 -18.991,1.318 -25.25,1.987 -25.25,2.695 0,0.407 -1.913,0.735 -4.25,0.729 -2.337,-0.006 -5.825,0.24 -7.75,0.546 -3.627,0.579 -20.43,2.712 -56.5,7.174 -11.55,1.428 -27.75,3.484 -36,4.568 -8.25,1.084 -17.1,1.968 -19.667,1.964 -2.566,-0.003 -4.824,0.468 -5.018,1.048 -0.2,0.602 -4.627,1.247 -10.333,1.504 -5.49,0.248 -14.932,1.318 -20.982,2.379 -6.05,1.06 -17.525,3.068 -25.5,4.461 -7.975,1.393 -19.541,3.449 -25.702,4.568 -6.16,1.118 -13.698,2.034 -16.75,2.034 -4.358,0 -5.548,0.334 -5.548,1.559 0,0.857 -0.377,1.326 -0.838,1.041 -0.961,-0.594 -19.645,2.248 -22.662,3.446 -1.1,0.437 -3.575,1.04 -5.5,1.34 -1.925,0.3 -6.65,1.271 -10.5,2.158 -3.85,0.888 -9.25,1.811 -12,2.052 -2.75,0.241 -8.15,1.285 -12,2.321 -3.85,1.035 -9.762,2.191 -13.137,2.568 -3.375,0.377 -7.37,1.325002 -8.876,2.106002 -1.506,0.782 -5.157,1.705 -8.113,2.053 -2.956,0.347 -5.374,0.972 -5.374,1.389 0,0.416 -1.687,0.995 -3.75,1.285 -11.126,1.568 -13.25,2.019 -13.25,2.812 0,0.479 -1.036,0.87 -2.301,0.87 -1.266,0 -6.104,1.116 -10.75,2.479 -4.647,1.363 -9.607,2.488 -11.023,2.5 -1.415,0.012 -6.332,1.146 -10.926,2.521 -4.594,1.375 -9.848,2.5 -11.676,2.5 -1.828,0 -3.324,0.391 -3.324,0.87 0,0.478 -2.025,1.153 -4.5,1.5 -2.475,0.346 -6.525,0.914 -9,1.26 -2.475,0.347 -4.5,1.022 -4.5,1.5 0,0.479 -1.28,0.87 -2.845,0.87 -1.564,0 -5.502,0.933 -8.75,2.074 -5.352,1.879 -13.483,3.932 -28.155,7.109 -2.887,0.625 -5.25,1.456 -5.25,1.847 0,0.671 -3.248,1.271 -14.25,2.636 -2.613,0.323 -4.75,0.981 -4.75,1.461 0,0.48 -0.907,0.873 -2.014,0.873 -1.905,0 -14.196,2.793 -31.058,7.058 -4.165,1.054 -9.414,2.147 -11.664,2.43 -2.251,0.283 -6.943,1.408 -10.428,2.5 -3.485,1.092 -7.799,1.992 -9.586,1.999 -1.787,0.007 -3.25,0.406 -3.25,0.886 0,0.48 -2.363,1.183 -5.25,1.562 -11.042,1.45 -12.75,1.8 -12.75,2.609 0,0.458 -2.138,1.129 -4.75,1.49 -2.612,0.361 -7.45,1.341 -10.75,2.178 -3.299996,0.836 -8.924996,2.14 -12.499996,2.897 -10.877,2.304 -30.67,8.773 -32,10.459 -0.275,0.349 -1.625,0.872 -3,1.164 -6.615,1.403 -16.319,5.412 -22.5,9.297 -2.2,1.382 -4.619,2.799 -5.376,3.147 -2.74,1.263 -17.1539999,16.584 -18.7329999,19.912 -0.89,1.877 -2.018,3.412 -2.505,3.412 -0.487,0 -0.886,0.637 -0.886,1.417 0,0.779 -0.553,1.601 -1.228,1.826 -0.84099998,0.28 -1.34799998,3.905 -1.60699998,11.482 -0.354,10.323 -0.246,11.115 1.59499998,11.699 1.924,0.611 3.24,5.577 3.24,12.226 0,2.917 3.858,11.35 5.1919999,11.35 0.535,0 3.941,2.925 7.569,6.5 3.628,3.575 7.154,6.5 7.835,6.5 0.68,0 1.387,0.337 1.571,0.75 0.733,1.65 18.32,9.238 25.083,10.823 1.513,0.354 2.75,0.973 2.75,1.376 0,0.402 2.475,1.325 5.5,2.051 3.025,0.726 5.5,1.698 5.5,2.16 0,0.462 1.035,0.84 2.3,0.84 1.265,0 2.727,0.412 3.25,0.916 0.522,0.504 1.85,1.067 2.95,1.25 1.1,0.184 2.595,0.897 3.321,1.584 0.727,0.688 2.232,1.25 3.345,1.25 1.113,0 5.018,0.839 8.679,1.864 3.66,1.025 11.829996,3.075 18.154996,4.556 6.325,1.481 14.929,3.567 19.12,4.636 4.191,1.069 8.579,1.944 9.75,1.944 1.172,0 2.13,0.422 2.13,0.939 0,0.516 2.138,1.227 4.75,1.58 2.613,0.352 6.775,1.265 9.25,2.027 2.475,0.762 8.1,1.833 12.5,2.38 4.4,0.546 12.275,1.905 17.5,3.018 5.225,1.114 10.935,2.032 12.688,2.04 1.753,0.009 6.241,0.724 9.973,1.59 3.732,0.865 10.159,1.952 14.284,2.414 4.124,0.463 7.661,1.329 7.86,1.926 0.199,0.598 2.237,1.083 4.528,1.078 2.292,-0.004 8.892,0.877 14.667,1.958 24.179,4.526 39.744,7.071 43.5,7.112 2.2,0.024 7.6,0.698 12,1.498 4.4,0.8 11.779,1.901 16.399,2.448 4.619,0.547 8.894,1.395 9.5,1.885 0.605,0.49 2.901,0.92 5.101,0.955 2.2,0.035 6.424,0.533 9.386,1.108 2.963,0.574 7.126,1.044 9.25,1.044 2.125,0 3.864,0.373 3.864,0.829 0,0.756 27.122,3.563 32.997,3.415 1.373,-0.035 2.793,0.416 3.155,1.001 0.361,0.586 4.413,1.396 9.003,1.801 4.59,0.406 12.845,1.419 18.345,2.253 5.5,0.834 14.439,2.013 19.865,2.621 5.426,0.607 10.376,1.436 11,1.842 0.624,0.406 2.71,0.779 4.635,0.83 8.628,0.226 24,1.775 24,2.417 0,0.653 3.335,1.005 25.25,2.662 4.262,0.322 7.75,0.94 7.75,1.372 0,0.433 3.488,1.07 7.75,1.416 4.263,0.346 11.575,1.043 16.25,1.549 4.675,0.507 13.45,1.409 19.5,2.005 26.856,2.648 31.679,3.153 43,4.497 11.643,1.382 19.479,2.197 43.5,4.522 6.325,0.613 16.328,1.759 22.229,2.548 5.901,0.788 11.076,1.335 11.5,1.214 0.424,-0.121 5.721,0.345 11.771,1.035 10.493,1.197 17.517,1.937 40,4.219 5.5,0.558 15.85,1.665 23,2.459 14.517,1.614 26.667,2.884 43,4.495 13.771,1.358 26.457,2.704 42.5,4.507 20.561,2.311 32.007,3.421 41.309,4.003 4.846,0.304 10.696,1.18 13,1.947 2.305,0.767 9.141,1.607 15.191,1.866 6.05,0.26 16.175,0.998 22.5,1.641 11.042,1.123 11.612,1.296 14.301,4.352 1.541,1.75 3.341,4.294 4,5.653 0.659,1.359 2.22,2.979 3.468,3.601 2.511,1.252 6.411,4.837 10.231,9.404 1.375,1.644 2.94,2.997 3.478,3.006 0.538,0.01 2.563,1.738 4.5,3.84 1.937,2.102 4.984,4.462 6.772,5.244 1.788,0.782 3.25,1.88 3.25,2.439 0,0.559 1.397,2.137 3.105,3.506 1.707,1.369 3.7,3.052 4.428,3.739 0.728,0.688 1.622,1.25 1.986,1.25 0.773,0 10.54,8.143 14.99199,12.5 1.686,1.65 4.303,3.561 5.815,4.246 1.512,0.685 3.295,1.719 3.962,2.297 0.666,0.578 3.687,2.865 6.712,5.081 3.025,2.216 6.531,4.908 7.791,5.982 1.261,1.074 4.973,3.358 8.25,5.076 3.278,1.718 5.959,3.456 5.959,3.862 0,0.407 1.21,1.043 2.689,1.414 1.479,0.371 3.841,1.486 5.25,2.477 1.409,0.992 3.686,2.149 5.061,2.571 1.375,0.423 3.573,1.607 4.885,2.632 1.312,1.024 2.962,1.862 3.667,1.862 0.705,0 1.433,0.454 1.618,1.01 0.185,0.555 1.46,1.221 2.833,1.479 1.373,0.258 3.397,0.897 4.497,1.419 8.173,3.883 35.893,12.092 40.83,12.092 1.377,0 2.672,0.505 2.878,1.123 0.205,0.617 1.93,1.272 3.833,1.456 1.902,0.183 5.034,0.658 6.959,1.055 1.925,0.397 14.23,0.89 27.345,1.095 23.831,0.373 23.849,0.372 31,-2.303 3.935,-1.473 7.655,-3.296 8.265,-4.052 0.611,-0.755 1.375,-1.374 1.699,-1.374 0.323,0 1.703,-1.034 3.066,-2.297 5.698,-5.28 7.721,-18.289 4.596,-29.564 -1.084,-3.912 -1.971,-9.123 -1.971,-11.579 0,-2.456 -0.506,-5.725 -1.125,-7.263 -0.618,-1.538 -1.492,-3.697 -1.943,-4.797 -0.45,-1.1 -1.109,-3.913 -1.463,-6.25 -0.355,-2.338 -0.997,-4.25 -1.427,-4.25 -0.43,0 -1.07,-1.912 -1.422,-4.25 -1.562,-10.369 -1.896,-11.75 -2.836,-11.75 -0.549,0 -0.76,-0.619 -0.47,-1.376 0.29,-0.756 -0.112,-2.608 -0.893,-4.114 -0.782,-1.506 -1.421,-3.55 -1.421,-4.541 0,-0.991 -0.562,-2.031 -1.25,-2.31 -3.986,-1.617 3.568,-2.091 24.4,-1.532 12.843,0.345 77.575,0.957 143.85,1.359 66.275,0.402 120.725,0.86 121,1.017 0.275,0.157 51.575,0.597 114,0.979 95.946,0.587 118.99,0.449 149,-0.893 19.525,-0.873 38.65,-1.503 42.5,-1.401 3.85,0.103 22.3,-0.352 41,-1.01 31.639,-1.113 73.246,-2.488 112.5,-3.718 9.075,-0.285 26.625,-1.182 39,-1.994 26.472,-1.737 28.411,-1.856 54.5,-3.348 11,-0.629 39.125,-2.251 62.5,-3.605 23.375,-1.355 58.7,-3.381 78.5,-4.504 35.486,-2.013 44.341,-2.708 70,-5.493 7.15,-0.777 18.4,-1.907 25,-2.512 6.6,-0.605 16.05,-1.51 21,-2.011 4.95,-0.501 14.625,-1.404 21.5,-2.006 6.875,-0.602 17.675,-1.713 24,-2.469 6.325,-0.756 17.125,-1.863 24,-2.461 17.993,-1.564 32.778,-3.005 46.5,-4.53 6.6,-0.734 13.35,-1.373 15,-1.421 1.65,-0.047 6.15,-0.547 10,-1.111 3.85,-0.564 10.938,-1.103 15.75,-1.198 4.813,-0.095 8.75,-0.539 8.75,-0.985 0,-0.447 2.311,-0.812 5.137,-0.812 2.825,0 9.012,-0.437 13.75,-0.971 16.832,-1.897 36.775,-3.977 48.113,-5.018 22.77,-2.091 31.679,-2.97 42.5,-4.193 6.05,-0.684 11.437,-1.114 11.972,-0.957 0.535,0.158 6.16,-0.389 12.5,-1.215 6.34,-0.826 17.153,-1.999 24.028,-2.607 16.462,-1.456 30.695,-2.856 46,-4.524 15.813,-1.723 22.072,-1.709 29.144,0.068 3.105,0.779 7.042,1.417 8.75,1.417 1.708,0 3.106,0.386 3.106,0.859 0,2.668 48.344,4.323 57.807,1.978 2.581,-0.639 5.705,-2.237 6.943,-3.551 2.183,-2.318 2.493,-3.457 2.668,-9.786 0.067,-2.446 0.543,-3.042 2.582,-3.229 2.929,-0.269 17.704,-1.891 30.5,-3.347 4.95,-0.564 13.95,-1.665 20,-2.447 12.853,-1.661 24.082,-3.004 38,-4.545 5.5,-0.609 13.15,-1.559 17,-2.111 3.85,-0.553 11.05,-1.418 16,-1.922 4.95,-0.505 12.375,-1.334 16.5,-1.844 8.805,-1.087 21.718,-2.574 35,-4.03 5.225,-0.573 11.975,-1.462 15,-1.977 5.469,-0.929 17.12,-2.062 41,-3.987 6.875,-0.554 18.35,-1.562 25.5,-2.239 7.15,-0.677 13.432,-1.107 13.96,-0.956 0.528,0.151 7.728,-0.423 16,-1.274 8.272,-0.852 21.115,-2.016 28.54,-2.587 7.425,-0.572 17.93,-1.482 23.345,-2.023 5.414,-0.541 10.201,-0.762 10.638,-0.492 0.437,0.269 5.852,-0.177 12.034,-0.992 6.183,-0.816 23.895,-1.957 39.362,-2.537 26.296,-0.986 40.111,-1.522 101.121,-3.928 72.471,-2.857 97.359,-3.236 175,-2.665 54.841,0.403 87.136,1.054 100,2.015 10.45,0.78 19.308,1.23 19.684,1 0.377,-0.231 9.152,0.052 19.5,0.629 10.349,0.577 27.816,1.506 38.816,2.065 11,0.558 27.65,1.649 37,2.424 9.35,0.775 23.975,1.9 32.5,2.5 15.535,1.094 23.998,1.951 44.5,4.504 6.05,0.754 15.725,1.871 21.5,2.482 5.775,0.612 13.875,1.604 18,2.206 4.125,0.601 9.3,1.177 11.5,1.279 5.574,0.26 16.064,1.361 29,3.045 6.05,0.787 15.725,1.913 21.5,2.5 5.775,0.588 14.325,1.48 19,1.983 4.675,0.503 13.225,1.407 19,2.009 12.543,1.308 31.189,3.643 39.5,4.947 3.3,0.518 9.15,1.434 13,2.036 3.85,0.602 10.825,1.778 15.5,2.614 11.419,2.041 16.572,2.879 40,6.501 3.575,0.553 9.875,1.753 14,2.668 4.125,0.915 8.85,1.749 10.5,1.853 1.65,0.105 6.15,0.697 10,1.317 3.85,0.619 9.875,1.567 13.389,2.106 3.513,0.539 9.588,1.657 13.5,2.485 6.854,1.451 16.05,3.289 27.611,5.518 3.025,0.584 8.65,1.716 12.5,2.516 16.955,3.525 27.042,5.43 28.747,5.43 1.011,0 2.381,0.478 3.045,1.063 0.664,0.585 9.758,6.648 20.208,13.475 10.45,6.826 19.829,13.057 20.843,13.847 1.013,0.79 3.938,2.488 6.5,3.775 2.561,1.287 4.882,2.569 5.157,2.85 0.275,0.28 2.3,1.405 4.5,2.5 2.2,1.094 4.225,2.215 4.5,2.49 0.275,0.275 2.975,1.752 6,3.281 3.025,1.53 8.65,4.548 12.5,6.707 3.85,2.158 8.913,4.856 11.25,5.993 2.337,1.138 4.25,2.439 4.25,2.892 0,0.453 1.912,1.602 4.25,2.553 2.337,0.952 5.914,2.595 7.948,3.652 2.034,1.057 4.216,1.922 4.849,1.922 1.139,0 3.255,0.872 13.953,5.751 3.025,1.379 6.4,2.851 7.5,3.271 1.1,0.42 4.7,1.995 8,3.5 3.3,1.505 6.9,3.092 8,3.527 1.1,0.434 4.475,1.905 7.5,3.268 11.775,5.305 70.48,24.158 78.488,25.206 1.643,0.215 5.018,0.82 7.5,1.344 4.263,0.9 8.928,1.816 20.512,4.027 2.75,0.525 7.734,1.484 11.076,2.13 3.54,0.685 11.889,1.03 20,0.826 12.918,-0.325 14.159,-0.526 17.174,-2.788 2.759,-2.07 3.25,-3.069 3.25,-6.614 0,-4.102 -0.258,-4.412 -14.416,-17.303 -7.929,-7.22 -19.418,-18.081 -25.53,-24.136 -6.113,-6.055 -11.438,-11.021 -11.834,-11.035 -0.396,-0.014 -6.527,-5.607 -13.624,-12.429 -11.491,-11.046 -12.532,-12.315 -9.5,-11.592 1.872,0.446 4.529,1.26 5.904,1.809 1.375,0.549 2.95,1.067 3.5,1.15 2.038,0.31 20.358,5.772 25,7.454 1.65,0.598 3.45,1.2 4,1.338 0.55,0.138 6.175,2.078 12.5,4.312 6.325,2.233 14.063,4.916 17.195,5.963 3.132,1.046 6.732,2.533 8,3.304 1.268,0.771 4.33,1.966 6.805,2.657 2.475,0.69 5.281,1.661 6.236,2.157 2.287,1.189 6.389,1.135 10.994,-0.144 l 3.731,-1.036 -0.612,-6.209 c -0.351,-3.57 -1.326,-7.058 -2.295,-8.208 -0.927,-1.1 -2.519,-3.338 -3.539,-4.974 -3.408,-5.466 -4.712,-6.804 -12.87,-13.209 -7.913,-6.214 -38.741,-27.317 -39.905,-27.317 -0.512,0 -2.152,-0.869 -3.645,-1.932 -3.385,-2.411 -29.034,-15.496 -39.095,-19.946 -4.125,-1.824 -9.975,-4.467 -13,-5.874 -6.391,-2.971 -7.047,-3.232 -17,-6.776 -24.036,-8.557 -36.068,-12.743 -40.5,-14.09 -2.75,-0.836 -7.566,-2.411 -10.703,-3.499 -3.136,-1.089 -6.511,-2.176 -7.5,-2.416 -7.372,-1.788 -33.047,-11.098 -34.297,-12.435 -0.275,-0.294 -1.85,-1.209 -3.5,-2.032 -1.65,-0.823 -3.36,-2.06 -3.8,-2.748 -0.44,-0.689 -1.64,-1.252 -2.667,-1.252 -1.796,0 -5.056,-1.25 -15.283,-5.859 -2.613,-1.178 -6.887,-3.08 -9.5,-4.227 -2.613,-1.147 -6.55,-2.89 -8.75,-3.873 -2.2,-0.982 -6.7,-2.783 -10,-4.001 -5.739,-2.119 -16.769,-6.34 -21,-8.036 -1.1,-0.441 -3.575,-1.35 -5.5,-2.02 -1.925,-0.67 -4.85,-1.796 -6.5,-2.502 -1.65,-0.706 -5.025,-1.973 -7.5,-2.815 -2.475,-0.843 -7.65,-2.728 -11.5,-4.189 -6.497,-2.466 -26.081,-9.093 -29.5,-9.983 -0.825,-0.215 -3.975,-1.275 -7,-2.356 -3.025,-1.08 -12.25,-4.077 -20.5,-6.659 -8.25,-2.582 -19.5,-6.19 -25,-8.018 -18.581,-6.174 -39.018,-12.162 -44,-12.891 -5.225,-0.765 -10.165,-1.92 -11.78,-2.754 -0.979,-0.506 -3.101,-1.087 -4.716,-1.291 -1.614,-0.204 -4.413,-0.847 -6.22,-1.427 -1.806,-0.58 -6.31,-1.758 -10.008,-2.617 -3.698,-0.859 -8.423,-2.277 -10.5,-3.151 -3.727,-1.568 -8.589,-2.461 -23.276,-4.274 -11.811,-1.458 -21.986,-3.245 -34.764,-6.103 -2.346,-0.525 -5.444,-0.954 -6.884,-0.954 -1.441,0 -4.247,-0.42 -6.236,-0.934 -1.989,-0.514 -6.991,-1.451 -11.116,-2.082 -4.125,-0.632 -10.425,-1.767 -14,-2.523 -3.575,-0.756 -8.523,-1.677 -10.996,-2.047 -2.473,-0.37 -6.748,-1.684 -9.5,-2.92 -8.949,-4.017 -13.605,-4.865 -27.165,-4.945 -10.636,-0.063 -13.514,-0.389 -15,-1.699 -3.268,-2.882 -11.71,-6.566 -16.725,-7.299 -2.938,-0.43 -7.438,-0.207 -11.291,0.559 -5.188,1.031 -7.578,1.031 -12.576,-0.001 -5.461,-1.128 -11.148,-3.938 -12.82,-6.334 -0.316,-0.452 -1.666,-1.03 -3,-1.285 -1.335,-0.255 -3.693,-0.986 -5.24,-1.624 -1.977,-0.816 -5.838,-0.918 -13,-0.345 -15.147,1.212 -18.855,0.933 -24.319,-1.825 -10.643,-5.373 -19.688,-6.42 -35.622,-4.121 -4.198,0.606 -5.25,0.35 -9,-2.185 -2.335,-1.58 -6.046,-3.432 -8.246,-4.116 -5.078,-1.579 -15.959,-1.636 -18.816,-0.098 -3.466,1.865 -9.256,0.991 -15.259,-2.303 -6.095,-3.345 -12.116,-3.91 -25.925,-2.431 l -7,0.75 -6.953,-4.596 c -4.501,-2.975 -8.045,-4.596 -10.05,-4.596 -1.703,0 -3.628,-0.531 -4.277,-1.18 -0.879,-0.879 -1.757,-0.897 -3.45,-0.068 -3.06,1.498 -7.702,2.276 -17.363,2.91 -7.464,0.489 -8.515,0.312 -13.5,-2.276 -9.525,-4.942 -15.492,-6.355 -26.914,-6.371 -5.778,-0.008 -11.863,0.374 -13.522,0.85 -3.875,1.111 -15.164,-0.625 -18.471,-2.841 -2.205,-1.477 -8.638,-4.407 -10,-4.555 -0.275,-0.03 -2.22,-0.643 -4.322,-1.363 -4.719,-1.616 -26.753,-1.9 -31.794,-0.41 -4.481,1.324 -13.483,-0.179 -16.384,-2.736 -1.1,-0.97 -4.447,-2.933 -7.437,-4.362 -4.634,-2.214 -6.794,-2.598 -14.624,-2.598 -5.485,0 -10.85,0.586 -13.312,1.455 -3.317,1.171 -5.83,1.262 -12.835,0.466 -4.963,-0.564 -9.408,-1.621 -10.33,-2.456 -0.891,-0.806 -2.005,-1.465 -2.476,-1.465 -0.472,0 -1.926,-1.004 -3.232,-2.231 -2.232,-2.097 -3.203,-2.225 -16.065,-2.127 -7.529,0.058 -16.411,0.215 -19.738,0.35 -4.743,0.193 -7.116,-0.283 -11,-2.204 -7.911,-3.914 -14.983,-5.129 -25.571,-4.394 -26.638,1.848 -28.82,1.875 -31.128,0.378 -5.807,-3.766 -15.428,-5.773 -27.461,-5.728 -6.485,0.024 -13.751,0.422 -16.146,0.884 -5.626,1.087 -18.593,-0.692 -23.025,-3.159 -6.883,-3.831002 -11.974,-4.945002 -19.975,-4.373002 -21.495,1.537002 -30.25,1.762002 -31.412,0.807 -0.678,-0.558 -2.965,-1.012 -5.083,-1.009 -2.117,0.003 -4.345,-0.489 -4.95,-1.094 -0.605,-0.605 -1.707,-1.1 -2.448,-1.1 -0.742,0 -3.211,-0.9 -5.488,-2 -4.573,-2.209 -9.926,-2.497 -16.764,-0.9 -2.475,0.577 -7.65,0.993 -11.5,0.923 -3.85,-0.071 -7.846,-0.128 -8.88,-0.128 -1.034,0 -3.501,-1.101 -5.482,-2.447 -1.981,-1.347 -4.179,-2.448 -4.884,-2.448 -0.704,0 -2.063,-0.395 -3.018,-0.877 -3.071,-1.552 -8.589,-2.927 -14.439,-3.6 -5.424,-0.623 -8.728,-0.045 -20.266,3.545 -2.466,0.767 -4.412,0.29 -11.5,-2.822 l -8.531,-3.746 -23.66,0.237 c -18.241,0.182 -24.424,-0.079 -27,-1.14 -10.761,-4.435 -36.467,-8.365 -43.856,-6.705 -2.407,0.541 -4.709,0.778 -5.115,0.527 -0.406,-0.251 -2.728,-0.011 -5.159,0.534 -4.801,1.076 -5.661,0.898 -18.46,-3.808 -4.537,-1.669 -8.25,-2.854 -8.25,-2.634 0,0.22 -1.857,-0.255 -4.126,-1.055 -5.437,-1.919 -26.823,-1.978 -32.946,-0.092 -12.878,3.968 -18.129,3.919 -25.044,-0.233 -1.989,-1.194 -6.174,-2.837 -9.299,-3.651 -6.253,-1.629 -20.176,-1.982 -23.788,-0.603 -1.263,0.482 -4.463,1.388 -7.111,2.013 -4.632,1.094 -5.056,1.001 -11.25,-2.463 -3.54,-1.979 -6.436,-3.358 -6.436,-3.064 0,0.294 -1.687,-0.187 -3.75,-1.07 -4.585,-1.961 -29.388,-2.249 -35.947,-0.417 -7.526,2.102 -15.294,1.866 -20.542,-0.626 -2.607,-1.238 -5.319,-2.25 -6.028,-2.25 -0.708,0 -2.282,-0.696 -3.497,-1.547 -1.214,-0.851 -2.777,-1.435 -3.472,-1.297 -0.695,0.137 -3.064,-0.404 -5.264,-1.203 -5.676,-2.062 -34.231,-1.723 -40.376,0.479 -6.333,2.269 -15.245,2.021 -20.929,-0.583 -11.008,-5.044 -26.311,-7.257 -40.748,-5.893 -13.78,1.302 -29.09,1.328 -36.947,0.063 -3.3,-0.531 -7.575,-1.02 -9.5,-1.086 -1.925,-0.066 -9.125,-0.743 -16,-1.503 -6.875,-0.76 -17.45,-1.83 -23.5,-2.377 -22.305,-2.015 -34.322,-3.163 -47.5,-4.535 -7.425,-0.774 -18.675,-1.892 -25,-2.485 -6.325,-0.593 -16,-1.501 -21.5,-2.018 -5.5,-0.517 -15.4,-1.424 -22,-2.015 -6.6,-0.592 -15.825,-1.554 -20.5,-2.14 -4.675,-0.585 -15.025,-1.47 -23,-1.966 -7.975,-0.496 -21.925,-1.364 -31,-1.928 -32.121,-1.998 -52.748,-2.985 -73.5,-3.52 -11.55,-0.297 -24.375,-0.985 -28.5,-1.529 -4.125,-0.544 -17.963,-1.269 -30.75,-1.612 -12.787,-0.342 -23.25,-0.94 -23.25,-1.329 0,-0.389 -10.575,-0.993 -23.5,-1.342 -12.925,-0.349 -34.187,-0.917 -47.25,-1.264 -13.062,-0.346 -23.975,-0.979 -24.251,-1.405 -0.275,-0.427 -11.3,-1.051 -24.5,-1.3880003 -31.578,-0.805 -115.996,-4.02 -175.999,-6.703 -38.689,-1.73 -65.749,-2.21499999 -139.5,-2.49799999 -50.325,-0.193 -101.4,-0.469 -113.5,-0.614 -12.1,-0.144 -64.525,0.041 -116.5,0.412"
     stroke="none"
     fill="#000000"
     fill-rule="evenodd"
     id="path2" />
</svg>
