<?xml version="1.0" standalone="no"?>
<!DOCTYPE svg PUBLIC "-//W3C//DTD SVG 20010904//EN"
 "http://www.w3.org/TR/2001/REC-SVG-20010904/DTD/svg10.dtd">
<svg version="1.0" xmlns="http://www.w3.org/2000/svg"
 width="4959.000000pt" height="1670.000000pt" viewBox="0 0 4959.000000 1670.000000"
 preserveAspectRatio="xMidYMid meet">
<metadata>
Created by potrace 1.16, written by Peter Selinger 2001-2019
</metadata>
<g transform="translate(0.000000,1670.000000) scale(0.100000,-0.100000)"
fill="#000000" stroke="none">
<path d="M29385 16689 c-503 -27 -1325 -308 -2397 -819 -969 -463 -1834 -994
-3003 -1844 -782 -569 -1002 -713 -1308 -861 -327 -158 -571 -218 -1247 -309
-615 -83 -762 -95 -2055 -161 -1025 -53 -1664 -103 -2435 -190 -2611 -297
-5605 -1040 -7686 -1908 -1398 -583 -2908 -1409 -4421 -2419 -573 -381 -2006
-1354 -2308 -1566 -386 -271 -723 -521 -975 -721 -771 -615 -1345 -1224 -1439
-1527 -11 -33 -36 -159 -57 -280 -35 -206 -38 -232 -38 -434 -1 -199 1 -218
20 -261 19 -41 28 -49 75 -66 l54 -20 75 -144 c122 -232 241 -395 394 -536
154 -141 169 -119 63 93 -42 85 -74 154 -71 154 12 0 91 -60 124 -95 50 -53
180 -159 217 -179 68 -35 85 -15 49 58 -14 29 -26 55 -26 58 0 2 28 -1 63 -8
87 -19 256 -18 336 2 36 9 96 32 133 51 l67 35 198 3 c219 2 301 17 428 74
l66 30 107 -43 c259 -104 781 -358 903 -439 30 -20 62 -49 71 -64 34 -57 59
-175 65 -300 7 -138 -1 -185 -49 -285 l-32 -68 -42 0 c-53 0 -196 -70 -344
-169 -58 -39 -115 -71 -127 -71 -34 0 -114 -33 -164 -67 -39 -26 -55 -31 -136
-36 -66 -4 -105 -2 -140 9 -26 8 -59 12 -73 9 -14 -3 -62 -45 -107 -92 -69
-73 -86 -86 -110 -84 -15 2 -46 4 -68 4 l-40 2 -3 -50 c-2 -53 38 -180 112
-355 32 -74 36 -92 31 -140 -4 -44 -1 -65 18 -105 58 -122 277 -359 400 -434
154 -92 261 -115 507 -108 285 8 431 37 950 194 862 261 1115 318 1450 330
150 5 182 3 345 -23 174 -28 192 -29 520 -28 232 0 399 6 525 17 1125 103
2339 426 3954 1054 133 51 146 54 255 60 107 5 482 76 962 183 52 12 224 37
383 56 159 19 425 52 590 74 166 22 337 41 381 41 163 3 1720 330 1969 414 93
31 242 104 284 140 41 34 41 60 0 85 -18 10 -38 24 -45 29 -6 6 -24 8 -40 5
-37 -7 -395 21 -593 47 -85 11 -225 34 -310 50 -149 29 -452 98 -458 104 -9 9
1007 350 1521 509 1021 318 1939 579 2632 751 293 73 953 225 975 225 5 0 47
-45 95 -100 47 -55 129 -139 182 -185 344 -307 709 -501 1433 -763 553 -200
952 -313 1425 -406 388 -76 644 -101 945 -93 284 7 418 34 533 106 60 39 107
103 107 147 0 42 -25 56 -141 83 -46 11 -88 26 -94 34 -19 26 -55 38 -213 73
-266 58 -456 122 -741 249 -668 296 -1028 553 -1256 895 -65 97 -231 418 -221
427 17 18 516 122 1250 263 569 109 932 183 1476 301 1086 236 1322 286 2445
515 1205 246 1278 258 1525 258 229 0 341 -38 460 -154 68 -68 87 -95 220
-315 228 -378 532 -783 703 -940 197 -180 314 -152 446 103 63 124 103 225
268 677 201 549 252 653 398 801 130 132 247 195 490 266 430 124 1341 188
2525 175 562 -6 750 -15 1044 -48 563 -63 1074 -217 1571 -473 372 -192 662
-402 916 -663 224 -231 385 -458 528 -743 187 -375 266 -717 311 -1350 20
-272 24 -949 9 -1424 -8 -248 -14 -608 -14 -801 0 -379 8 -453 59 -569 95
-216 307 -120 526 239 138 224 333 673 509 1166 74 209 123 359 391 1189 266
823 461 1294 753 1816 162 289 250 399 485 605 336 294 808 603 1687 1104 565
322 1210 653 1673 858 1507 668 3286 1113 5107 1277 366 33 450 54 450 115 0
76 -159 121 -675 189 -487 65 -969 92 -1775 102 -1182 15 -2481 -49 -3490
-172 -723 -88 -1290 -186 -2565 -444 -1021 -207 -1250 -242 -1679 -260 -687
-27 -1462 62 -2171 252 -618 165 -1068 324 -2340 830 -415 165 -1081 430
-1480 588 -772 307 -999 393 -1420 540 -460 160 -704 264 -860 365 -36 23 -74
52 -85 64 -19 22 -19 23 0 37 25 18 109 18 260 -1 334 -42 523 4 685 165 232
230 260 586 94 1202 -55 204 -163 521 -384 1123 -111 303 -286 804 -390 1115
-213 643 -272 804 -375 1015 -185 384 -423 637 -740 790 -237 113 -494 160
-800 144z"/>
</g>
</svg>
