<?xml version="1.0" encoding="UTF-8" standalone="no"?>
<svg
   width="332.41635"
   height="860.5"
   viewBox="0 0 332.41635 860.5"
   version="1.1"
   id="svg4"
   xmlns="http://www.w3.org/2000/svg"
   xmlns:svg="http://www.w3.org/2000/svg">
  <defs
     id="defs8" />
  <path
     d="m 76.5,1.378 c 0,0.482 0.636,1.405 1.414,2.051 1.45,1.203 6.586,13.132 6.586,15.297 0,0.663 -2.444,-1.208 -5.431,-4.158 C 74.887,10.438 72.644,9.02 69.319,8.406 66.943,7.967 63.65,7.318 62,6.964 L 59,6.32 62.363,8.464 c 1.849,1.179 3.197,2.309 2.995,2.511 C 65.156,11.177 61.197,10.243 56.559,8.9 48.619,6.6 43.122,6.144 48.43,8.225 c 2.034,0.797 1.312,1.057 -4.429,1.593 -10.162,0.949 -9.694,2.162 0.897,2.325 9.751,0.15 13.427,1.296 17.07,5.322 1.813,2.003 1.556,1.964 -3.37,-0.51 -4.933,-2.477 -6.073,-2.648 -15.2,-2.282 -6.139,0.247 -10.346,0.875 -11.133,1.663 -1.021,1.022 -0.396,1.149 3.235,0.661 l 4.5,-0.606 -5.371,1.942 c -2.955,1.068 -5.655,2.368 -6,2.89 -0.346,0.521 -1.529,1.481 -2.629,2.133 -1.696,1.005 -1.392,1.096 2,0.601 l 4,-0.584 -4.75,2.732 c -2.613,1.502 -4.75,3.143 -4.75,3.646 0,0.504 0.337,0.742 0.75,0.53 5.792,-2.982 9.824,-4.202 15.136,-4.578 4.573,-0.325 6.189,-0.134 5.691,0.672 -0.382,0.619 -1.269,1.125 -1.971,1.125 -2.347,0 -21.039,8.028 -24.864,10.679 -4.834,3.35 -3.955,4.371 1.246,1.448 3.686,-2.071 20.084,-7.388 20.746,-6.726 0.468,0.468 -5.037,10.06 -6,10.455 -0.478,0.195 -2.076,1.472 -3.551,2.838 -2.148,1.987 -2.284,2.342 -0.683,1.78 1.1,-0.385 2.9,-0.945 4,-1.244 l 2,-0.544 -2,2.266 c -1.1,1.247 -5.825,5.223 -10.5,8.836 -4.675,3.614 -10.525,8.403 -13,10.644 -2.475,2.241 -5.625,4.873 -7,5.849 L 0,75.555 2.5,74.912 c 1.375,-0.354 4.75,-2.34 7.5,-4.413 4.07,-3.068 13.993,-9.62 20.211,-13.343 1.396,-0.836 -3.114,9.547 -5.864,13.498 -2.923,4.202 -2.162,4.536 1.803,0.792 2.008,-1.895 3.259,-2.771 2.782,-1.946 -0.478,0.825 -2.346,3.949 -4.151,6.941 -4.248,7.044 -4.535,11.343 -0.334,5.005 1.62,-2.445 4.539,-6.246 6.485,-8.446 3.091,-3.494 3.54,-3.724 3.553,-1.816 0.025,3.638 -5.935,12.095 -10.377,14.724 -4.622,2.735 -13.019,10.514 -12.216,11.317 0.288,0.288 1.953,-0.679 3.699,-2.148 1.747,-1.47 4.834,-3.519 6.861,-4.552 l 3.684,-1.88 -2.351,9.078 c -2.694,10.4 -2.501,13.934 0.317,5.789 1.044,-3.019 3.248,-8.17 4.898,-11.446 2.467,-4.899 3.645,-6.172 6.632,-7.168 3.47,-1.158 3.687,-1.093 4.88,1.445 0.698,1.487 1.566,9.381 1.969,17.925 0.396,8.397 1.013,15.559 1.37,15.916 0.357,0.357 0.649,-0.935 0.649,-2.871 0,-5.588 1.226,-15.816 1.892,-15.786 0.335,0.014 3.082,5.275 6.106,11.689 6.097,12.936 7.745,13.148 3.042,0.391 -1.672,-4.534 -3.022,-8.55 -3,-8.925 0.095,-1.609 3.294,5.573 7.059,15.849 3.447,9.404 3.858,11.315 2.73,12.675 -0.731,0.881 -1.6,4.12 -1.932,7.198 l -0.603,5.596 -0.266,-6.5 -0.266,-6.5 -1.269,5 c -0.699,2.75 -1.072,6.8 -0.829,9 l 0.441,4 -1.631,-2.838 c -2.743,-4.776 -2.751,-2.263 -0.019,6.383 1.43,4.528 2.389,8.444 2.131,8.703 -0.259,0.258 -1.509,-2.95 -2.778,-7.13 -3.463,-11.403 -4.532,-10.023 -2.134,2.757 0.367,1.954 0.185,2.656 -0.567,2.191 -1.465,-0.905 -1.398,0.158 0.382,6.025 0.819,2.7 1.494,5.022 1.5,5.159 0.006,0.137 -1.816,0.25 -4.048,0.25 -2.451,0 -3.814,0.396 -3.441,1 0.34,0.55 2.301,1 4.359,1 4.903,0 7.033,1.952 3.937,3.609 -1.833,0.981 -2.443,0.9 -3.478,-0.46 -0.803,-1.055 -1.266,-1.199 -1.286,-0.399 -0.018,0.688 -0.707,1.25 -1.532,1.25 -0.825,0 -1.5,0.45 -1.5,1 0,0.55 0.884,1 1.965,1 1.08,0 2.486,0.975 3.124,2.166 1.034,1.932 0.659,2.631 -3.465,6.473 -2.543,2.368 -4.624,4.53 -4.624,4.802 0,0.778 3.241,-0.587 6.113,-2.574 3.247,-2.247 3.963,-1.619 2.796,2.452 -0.5,1.742 -0.909,4.868 -0.909,6.945 0,3.347 -0.519,4.143 -4.555,6.988 -6.33,4.462 -3.565,4.775 3.098,0.351 6.138,-4.076 6.457,-4.18 6.457,-2.103 0,1.881 1.396,1.933 2.91,0.108 1.654,-1.992 5.088,-2.767 4.408,-0.995 -0.746,1.944 0.434,1.727 3.432,-0.631 2.367,-1.862 8.391,-3.931 15.75,-5.41 2.198,-0.442 1.412,0.27 -2.939,2.662 -3.266,1.796 -6.128,3.866 -6.361,4.599 -0.337,1.066 0.152,1.041 2.439,-0.123 1.574,-0.801 3.912,-1.781 5.196,-2.178 2.318,-0.716 2.322,-0.702 0.59,1.941 -0.959,1.464 -4.868,4.236 -8.687,6.159 -7.773,3.914 -8.618,5.532 -1.238,2.368 5.095,-2.184 6.59,-2.018 4.5,0.5 -0.707,0.852 -0.986,1.848 -0.619,2.214 0.366,0.366 1.293,-0.208 2.061,-1.274 3.185,-4.426 4.276,-5.264 8.794,-6.751 l 4.736,-1.558 -1.356,3.184 c -0.746,1.752 -2.04,4.76 -2.875,6.685 -2.604,6.003 -5.438,13.334 -6.765,17.5 -3.03,9.512 -4.799,12.5 -7.402,12.5 -3.172,0 -11.044,-6.27 -24.574,-19.574 -10.301,-10.129 -14.48,-12.946 -17.491,-11.791 -2.026,0.777 -1.908,2.277 0.241,3.089 0.962,0.364 8.362,6.847 16.443,14.408 8.082,7.561 15.867,14.517 17.302,15.456 5.047,3.308 1.666,3.903 -23.219,4.086 -25.411,0.188 -28.276,0.697 -28.276,5.021 0,2.287 0.086,2.312 2.95,0.831 2.293,-1.186 6.807,-1.542 20.25,-1.597 17.953,-0.074 32.908,-1.094 36.214,-2.472 1.219,-0.507 1.687,-0.429 1.288,0.216 -3.279,5.305 -14.724,59.325 -17.103,80.718 -0.964,8.672 -1.363,9.987 -3.242,10.678 -4.278,1.572 -21.238,-9.32 -35.471,-22.782 -5.358,-5.067 -10.968,-9.521 -12.468,-9.897 -3.086,-0.774 -5.758,0.511 -6.249,3.007 -0.263,1.335 0.18,1.553 2.152,1.059 2.093,-0.526 3.792,0.589 10.831,7.111 14.031,12.999 30.158,24.194 37.26,25.867 2.866,0.675 2.882,0.716 1,2.582 -1.051,1.043 -5.962,4.08 -10.912,6.749 -8.439,4.549 -12.988,6.385 -26.5,10.69 -6.737,2.147 -10,4.973 -10,8.66 0,3.9 1.341,4.267 3.739,1.024 1.502,-2.031 5.124,-3.953 13.409,-7.115 14.307,-5.461 27.766,-12.133 32.047,-15.887 L 57,354.74 l 0.079,16.63 c 0.106,22.089 2.738,41.513 9.367,69.13 1.122,4.675 2.043,8.893 2.047,9.372 0.031,3.875 -14.311,-17.481 -22.55,-33.578 -5.742,-11.217 -8.749,-14.615 -11.164,-12.611 -1.114,0.925 -0.903,1.6 1.182,3.776 1.397,1.458 2.539,2.967 2.539,3.355 0,0.387 3.45,7.105 7.666,14.928 7.997,14.841 16.967,27.956 20.362,29.773 1.844,0.987 1.878,1.266 0.485,3.959 -2.39,4.622 -15.478,14.003 -36.926,26.468 -8.763,5.093 -11.097,7.938 -10.419,12.703 0.473,3.327 3.832,3.78 3.832,0.517 0,-3.174 3.566,-6.176 15.876,-13.366 14.74,-8.61 26.976,-17.236 29.915,-21.089 l 2.655,-3.48 1.214,2.975 c 0.892,2.186 0.973,5.474 0.306,12.387 -2.717,28.135 -2.524,33.27 1.286,34.267 1.188,0.31 2.252,0.47 2.364,0.354 0.111,-0.115 -0.262,-2.553 -0.831,-5.417 -0.745,-3.754 -0.681,-8.472 0.227,-16.907 l 1.261,-11.701 4.917,10.408 c 6.901,14.607 11.177,25.574 15.171,38.907 4.867,16.249 4.844,15.542 0.491,15.28 -2.007,-0.121 -5.607,-0.929 -8,-1.796 -2.394,-0.867 -5.252,-1.762 -6.352,-1.989 -1.1,-0.227 -6.05,-1.583 -11,-3.015 -6.215,-1.797 -11.754,-2.66 -17.901,-2.791 L 46.198,532 l -0.971,2.866 c -0.734,2.166 -0.636,3.077 0.401,3.734 2.003,1.269 2.872,1.094 2.872,-0.581 0,-3.914 9.701,-2.911 30.267,3.13 6.728,1.976 14.427,3.97 17.109,4.432 2.682,0.461 5.07,1.032 5.306,1.268 0.786,0.786 -2.799,12.961 -7.771,26.391 -5.429,14.664 -6.02,19.581 -2.838,23.625 3.802,4.834 7.478,2.651 3.834,-2.276 -2.742,-3.71 -2.448,-5.336 4.113,-22.738 2.741,-7.27 5.34,-14.931 5.775,-17.026 0.763,-3.673 0.856,-3.489 2.631,5.183 6.002,29.321 11.974,55.941 15.59,69.492 6.055,22.686 5.993,22.391 4.911,23.473 -0.536,0.536 -8.357,1.287 -17.379,1.67 -17.378,0.736 -20.804,1.585 -26.058,6.454 -2.153,1.995 -2.551,3.147 -2.297,6.65 0.219,3.022 0.79,4.327 1.993,4.555 1.299,0.247 1.758,-0.545 2,-3.451 0.26,-3.12 1.023,-4.269 4.42,-6.65 3.93,-2.754 4.716,-2.902 18.25,-3.438 9.496,-0.376 14.144,-0.218 14.144,0.482 0,1.268 -2.375,2.255 -5.427,2.255 -2.533,0 -5.573,2.841 -5.573,5.208 0,0.853 -1.983,3.176 -4.406,5.161 -5.093,4.173 -14.594,15.762 -14.594,17.8 0,0.762 -0.656,2.323 -1.458,3.467 -1.34,1.914 -1.256,2.173 1.047,3.223 1.378,0.627 3.384,1.141 4.458,1.141 2.07,0 2.628,-1.465 0.953,-2.5 -4.224,-2.611 3.981,-12.855 22.263,-27.797 6.924,-5.658 10.932,-8.334 11.234,-7.5 0.259,0.713 2.289,7.372 4.51,14.797 2.222,7.425 4.688,15.641 5.482,18.258 0.793,2.617 1.195,5.402 0.893,6.189 -0.302,0.787 0.545,3.608 1.882,6.27 1.337,2.662 3.474,8.877 4.75,13.812 1.275,4.934 2.731,9.513 3.236,10.175 2.041,2.676 3.774,10.563 2.625,11.947 -2.261,2.724 -16.164,0.451 -31.272,-5.112 -8.936,-3.29 -13.046,-3.319 -15.151,-0.106 -1.24,1.892 -1.348,2.892 -0.488,4.5 1.393,2.602 3.036,2.675 3.036,0.134 0,-3.338 3.579,-3.358 13.26,-0.077 11.498,3.898 20.136,5.976 24.913,5.995 l 3.674,0.015 -1.382,2.75 c -0.76,1.513 -7.025,8.705 -13.923,15.984 -11.015,11.623 -12.542,13.649 -12.542,16.643 0,2.901 1.285,4.623 3.451,4.623 0.158,0 0.544,-1.579 0.857,-3.509 0.344,-2.119 1.882,-4.811 3.881,-6.793 5.446,-5.399 13.161,-13.885 17.284,-19.012 3.173,-3.944 9.527,-8.848 9.527,-7.352 0,2.213 24.52,70.032 26.986,74.64 1.258,2.351 0.495,3.153 -11.049,11.626 -6.755,4.958 -9.083,7.307 -10.329,10.421 -2.016,5.04 -2.022,4.979 0.444,4.979 1.376,0 2.393,-0.978 3.087,-2.969 0.944,-2.709 4.129,-5.476 14.74,-12.81 2.89,-1.998 3.278,-2.074 2.679,-0.528 -0.385,0.994 -0.956,3.945 -1.268,6.557 -0.522,4.364 -0.395,4.75 1.571,4.75 1.585,0 2.139,-0.615 2.139,-2.375 0,-3.391 1.138,-8.625 1.875,-8.624 0.344,10e-4 1.934,2.363 3.535,5.25 1.6,2.887 6.209,8.511 10.242,12.499 6.892,6.815 7.6,7.25 11.781,7.25 2.447,0 4.73,-0.454 5.073,-1.009 1.026,-1.661 -0.517,-4.989 -2.323,-5.013 -1.404,-0.018 -12.183,-9.307 -12.183,-10.499 0,-0.208 -1.574,-2.989 -3.497,-6.179 -1.924,-3.19 -3.499,-6.188 -3.5,-6.661 -0.002,-0.474 1.492,-0.581 3.319,-0.238 1.826,0.342 3.595,0.348 3.931,0.013 1.442,-1.442 -0.768,-3.473 -4.417,-4.056 -2.884,-0.461 -3.796,-1.02 -3.391,-2.076 0.305,-0.795 0.555,-1.99 0.555,-2.656 0,-0.797 1.762,-1.197 5.153,-1.169 3.127,0.026 5.314,-0.426 5.564,-1.15 0.526,-1.525 -5.201,-2.629 -11.177,-2.154 l -4.54,0.361 0.013,-3.507 c 0.015,-4.003 3.248,-20.136 4.861,-24.257 0.681,-1.74 1.82,-2.75 3.101,-2.75 1.358,0 2.025,-0.659 2.025,-2 0,-1.534 -0.667,-2 -2.861,-2 -2.428,0 -3.205,0.719 -5.133,4.75 -1.249,2.612 -2.889,6.027 -3.643,7.589 -0.754,1.561 -1.117,3.25 -0.806,3.752 0.844,1.368 -0.68,10.191 -1.596,9.234 -0.969,-1.013 -6.876,-16.317 -9.967,-25.825 -1.251,-3.85 -2.887,-8.478 -3.635,-10.284 -0.747,-1.806 -1.359,-4.788 -1.359,-6.627 0,-1.839 -0.667,-3.898 -1.483,-4.575 -0.816,-0.677 -2.217,-3.77 -3.114,-6.872 -0.896,-3.103 -2.254,-6.836 -3.017,-8.296 -1.946,-3.727 -1.751,-4.723 1.191,-6.063 2.743,-1.25 14.225,-15.962 18.951,-24.283 3.895,-6.857 8.379,-12.5 9.934,-12.5 0.711,0 1.853,0.675 2.538,1.5 1.797,2.166 3,1.845 3,-0.8 0,-7.577 -10.749,-5.46 -14.995,2.953 -2.209,4.378 -12.556,19.494 -16.339,23.871 l -3.381,3.911 -0.718,-5.967 c -0.394,-3.283 -1.583,-9.997 -2.642,-14.921 -2.376,-11.051 -2.416,-10.364 0.575,-9.792 2.03,0.388 2.5,0.08 2.5,-1.638 0,-1.215 -0.639,-2.117 -1.5,-2.117 -0.825,0 -1.5,-0.498 -1.5,-1.107 0,-0.609 -0.663,-0.853 -1.474,-0.542 -2.159,0.829 -3.527,-2.254 -2.247,-5.064 0.77,-1.689 0.752,-2.656 -0.064,-3.472 -1.572,-1.572 -3.907,0.506 -4.718,4.197 -0.782,3.563 -2.677,3.051 -5.477,-1.479 -1.69,-2.735 -2.02,-4.979 -2.02,-13.742 0,-6.162 -0.584,-12.414 -1.419,-15.188 -1.013,-3.366 -1.085,-4.574 -0.25,-4.22 0.643,0.272 6.119,2.107 12.169,4.077 6.05,1.969 11.874,4.247 12.941,5.061 1.068,0.813 3.577,1.479 5.576,1.479 4.648,0 8.47,3.674 7.748,7.449 -0.564,2.948 1.219,3.425 3.664,0.98 2.116,-2.117 1.983,-3.519 -0.711,-7.531 -2.459,-3.662 -2.702,-3.763 -28.218,-11.767 -13.893,-4.358 -20.5,-7.957 -20.5,-11.167 0,-1.797 0.718,-1.964 8.441,-1.964 8.15,0 11.629,-1.218 7.872,-2.757 C 155.816,643.334 150.837,643 145.748,643 h -9.252 l -1.935,-6 c -1.064,-3.3 -3.14,-10.725 -4.614,-16.5 -3.154,-12.363 -14.27,-67 -13.631,-67 0.242,0 3.419,2.184 7.062,4.853 3.642,2.67 9.997,7.113 14.122,9.875 9.324,6.243 11.5,8.632 11.5,12.627 0,2.478 0.424,3.145 2,3.145 1.579,0 2.064,-0.768 2.305,-3.653 0.379,-4.546 -3.331,-9.12 -12.231,-15.077 -8.534,-5.713 -23.574,-16.869 -23.574,-17.487 0,-0.284 1.012,-0.2 2.25,0.187 1.238,0.387 4.05,1.067 6.25,1.512 28.214,5.708 38.051,8.478 41.168,11.595 2.651,2.651 4.332,2.431 4.332,-0.568 0,-3.635 -5.411,-5.781 -29.922,-11.867 -13.416,-3.331 -24.82,-6.484 -25.343,-7.007 -0.601,-0.601 -0.556,-2.18 0.122,-4.293 0.589,-1.838 1.318,-10.092 1.618,-18.342 0.301,-8.25 0.799,-18.199 1.108,-22.108 0.581,-7.362 -0.207,-14.392 -1.613,-14.392 -0.444,0 -1.788,1.587 -2.986,3.527 -2.099,3.394 -2.119,3.679 -0.545,7.612 1.138,2.843 1.477,5.801 1.116,9.724 -0.285,3.1 -0.753,10.362 -1.04,16.137 -0.287,5.775 -0.879,11.806 -1.314,13.402 -0.716,2.621 -1.068,1.992 -3.643,-6.5 -4.574,-15.09 -10.948,-31.622 -17.44,-45.236 -3.323,-6.969 -6.536,-14.582 -7.14,-16.918 -0.603,-2.336 -1.304,-4.969 -1.558,-5.85 -0.412,-1.434 0.095,-1.414 4.856,0.194 7.505,2.533 19.991,3.908 35.497,3.908 14.577,0 19.227,1.233 19.227,5.099 0,3.129 3.43,1.99 3.807,-1.265 0.375,-3.224 -2.66,-6.355 -7.001,-7.223 -1.681,-0.336 -8.992,-0.611 -16.247,-0.611 -12.498,0 -18.909,-0.673 -29.804,-3.128 l -4.745,-1.069 9.611,-10.152 c 5.286,-5.583 12.2,-13.534 15.364,-17.67 7.22,-9.436 8.396,-10.395 12.603,-10.276 3.528,0.1 4.414,-1.303 2.212,-3.505 -1.448,-1.448 -6.239,-1.57 -8.757,-0.223 -1.004,0.537 -5.881,6.05 -10.839,12.25 C 98.463,437.536 84.169,451.886 82.272,451.264 80.185,450.579 73.183,422.941 70.045,403 68.444,392.83 67.048,370.096 67.5,361.562 l 0.5,-9.438 3.5,-0.336 c 4.827,-0.464 14.002,-3.799 23.409,-8.51 7.033,-3.522 15.2,-8.335 16.591,-9.778 2.575,-2.672 10.053,-6.358 12.75,-6.285 1.788,0.048 3.25,-0.286 3.25,-0.743 0,-1.416 -3.06,-3.972 -4.756,-3.972 -2.285,0 -9.581,3.67 -12.502,6.289 -3.857,3.458 -17.516,11.27 -18.313,10.473 -0.209,-0.209 1.747,-2.14 4.346,-4.292 2.599,-2.152 4.857,-4.21 5.019,-4.573 0.162,-0.363 2.339,-3.301 4.838,-6.529 5.273,-6.809 8.329,-8.755 12.355,-7.871 2.492,0.548 2.792,0.374 2.341,-1.353 -0.285,-1.089 -1.846,-2.53 -3.468,-3.202 -3.942,-1.633 -6.542,-0.361 -11.464,5.607 -11.493,13.936 -25.786,27.128 -31.922,29.461 -4.705,1.789 -5.505,-0.033 -4.391,-10.01 2.15,-19.251 9.464,-57.581 11.777,-61.713 0.62,-1.109 1.256,1.111 2.094,7.311 2.112,15.62 2.542,17.734 3.681,18.114 2.089,0.696 2.193,-5.191 0.321,-18.212 -2.508,-17.448 -2.766,-20.782 -1.808,-23.37 0.75,-2.028 0.992,-2.086 3.083,-0.738 4.92,3.173 14.267,3.865 33.769,2.5 10.175,-0.712 20.413,-1.2 22.75,-1.084 3.647,0.181 4.25,-0.071 4.25,-1.78 0,-2.936 -3.524,-3.408 -16.281,-2.18 -20.779,2.001 -24.193,2.137 -31.87,1.264 -11.03,-1.253 -14.418,-4.187 -11.908,-10.315 0.517,-1.263 2.132,-6.122 3.589,-10.797 1.456,-4.675 4.183,-11.623 6.059,-15.44 1.876,-3.817 3.411,-7.52 3.411,-8.23 0,-2.87 3.375,-9.457 5.37,-10.482 1.754,-0.9 1.909,-0.859 0.88,0.23 -0.687,0.727 -1.243,2.019 -1.235,2.872 0.009,0.941 1.384,-0.021 3.501,-2.45 3.18,-3.649 3.399,-3.753 2.485,-1.185 -0.55,1.548 -0.969,4.023 -0.931,5.5 0.063,2.37 0.243,2.216 1.534,-1.313 1.417,-3.872 4.4,-7.924 4.392,-5.966 -0.002,0.53 -0.877,2.397 -1.945,4.149 -2.497,4.095 -0.74,4.946 3.576,1.731 1.719,-1.281 3.431,-2.025 3.804,-1.652 0.373,0.373 1.096,0.016 1.608,-0.793 0.719,-1.137 0.935,-0.904 0.949,1.029 0.019,2.494 0.024,2.492 1.909,-0.5 3.129,-4.966 8.021,-10.144 8.031,-8.5 0.004,0.825 -0.652,2.374 -1.46,3.441 -2.447,3.236 -1.58,4.258 1.064,1.253 2.247,-2.554 2.468,-2.622 2.468,-0.75 0,1.131 0.488,2.056 1.083,2.056 0.596,0 0.89,-0.562 0.654,-1.25 -0.366,-1.065 4.727,-12.274 6.248,-13.75 0.283,-0.275 2.341,-4.27 4.572,-8.878 l 4.057,-8.378 3.601,6.045 3.601,6.045 -2.908,1.204 c -1.599,0.663 -2.908,1.606 -2.908,2.097 0,0.49 1.688,0.185 3.75,-0.678 3.708,-1.552 3.778,-1.538 6.288,1.265 2.443,2.729 12.753,7.821 13.772,6.802 0.272,-0.273 -0.698,-1.435 -2.157,-2.583 -1.459,-1.147 -2.653,-2.425 -2.653,-2.839 0,-0.969 27.972,-15.464 28.61,-14.826 0.616,0.617 -8.959,8.275 -13.852,11.08 -2.059,1.179 -3.746,2.462 -3.75,2.85 -0.019,1.741 14.679,-5.156 19.242,-9.03 1.555,-1.321 1.75,-1.31 1.75,0.096 0,0.871 -1.186,2.516 -2.635,3.655 -2.682,2.11 -1.678,2.846 1.535,1.127 1.556,-0.833 2.155,0.219 4.988,8.75 1.771,5.333 7.422,18.021 12.559,28.196 13.676,27.093 16.92,39.494 13.579,51.903 -0.931,3.458 -1.43,3.833 -7.817,5.89 -3.752,1.209 -10.493,2.692 -14.98,3.296 -7.378,0.992 -8.76,0.897 -14.444,-0.998 -3.457,-1.152 -8.928,-3.689 -12.158,-5.637 -3.23,-1.948 -6.151,-3.263 -6.491,-2.923 -0.341,0.34 1.549,2.668 4.199,5.172 3.819,3.608 4.336,4.442 2.492,4.02 -1.28,-0.293 -3.227,-0.157 -4.327,0.302 -1.632,0.681 -1.355,0.857 1.5,0.955 1.925,0.066 6.65,1.14 10.5,2.386 l 7,2.266 -5.253,1.284 c -5.721,1.399 -8.229,3.353 -3.297,2.569 9.624,-1.53 9.736,-1.47 3.222,1.729 l -6.329,3.108 -4.551,-2.211 c -2.504,-1.216 -6.66,-3.989 -9.237,-6.161 -2.576,-2.173 -5.001,-3.95 -5.39,-3.95 -1.285,0 3.344,7.989 5.358,9.247 1.088,0.679 1.977,1.719 1.977,2.312 0,0.593 1.462,1.806 3.25,2.696 2.537,1.262 2.811,1.641 1.25,1.726 -1.1,0.06 -4.025,1.234 -6.5,2.608 -3.846,2.136 -4.064,2.409 -1.5,1.879 4.421,-0.914 22.785,-2.145 24.334,-1.632 2.798,0.928 -1.333,2.133 -7.834,2.286 l -6.5,0.153 4.728,1.026 c 4.381,0.951 4.688,1.216 4.187,3.612 -0.456,2.18 -0.367,2.313 0.565,0.849 1.621,-2.548 4.616,-3.88 10.525,-4.682 l 5.25,-0.712 -0.878,3.059 c -0.482,1.683 -0.877,3.175 -0.877,3.316 0,0.987 2.798,-0.302 8.121,-3.743 5.993,-3.873 8.588,-4.956 7.444,-3.105 -0.305,0.493 0.155,1.167 1.02,1.499 1.191,0.457 1.407,1.366 0.888,3.73 -0.423,1.924 -0.316,2.897 0.278,2.53 0.531,-0.328 1.51,-3.973 2.176,-8.099 0.708,-4.392 1.997,-8.446 3.108,-9.779 l 1.898,-2.276 0.034,2.307 c 0.049,3.415 2.154,11.193 3.029,11.193 0.417,0 0.568,-1.913 0.335,-4.25 -0.234,-2.337 -0.024,-6.275 0.465,-8.75 l 0.889,-4.5 0.723,4 c 1.492,8.248 2.452,8.248 2.608,0 l 0.152,-8 1.189,5.519 c 1.328,6.163 4.756,12.613 6.502,12.231 0.627,-0.138 1.141,0.425 1.141,1.25 0,0.825 0.337,1.501 0.75,1.502 0.413,10e-4 0.598,-2.689 0.412,-5.977 -0.233,-4.131 0.363,-8.339 1.929,-13.613 l 2.266,-7.634 2.7,5.361 c 1.485,2.948 3.002,7.17 3.371,9.381 1.389,8.334 2.186,6.099 1.763,-4.946 -0.241,-6.294 -0.077,-14.061 0.363,-17.259 l 0.801,-5.815 0.701,5.148 c 0.788,5.791 3.79,14.352 5.032,14.352 0.449,0 0.168,-2.137 -0.625,-4.75 -0.793,-2.613 -1.416,-7.45 -1.385,-10.75 l 0.057,-6 3.627,9.416 c 1.995,5.179 3.788,8.934 3.984,8.345 0.325,-0.974 -1.872,-10.612 -3.413,-14.979 -0.346,-0.98 0.784,-0.242 2.512,1.641 1.728,1.883 3.456,3.11 3.839,2.726 0.383,-0.383 1.249,0.552 1.925,2.077 0.994,2.244 1.24,2.392 1.288,0.774 0.032,-1.1 -0.831,-3.962 -1.919,-6.359 -2.355,-5.191 -2.501,-6.215 -0.51,-3.582 2.268,2.998 1.812,0.337 -1.464,-8.547 -3.065,-8.313 -2.584,-9.777 1.051,-3.197 1.865,3.377 2.001,3.455 1.629,0.935 -0.429,-2.902 0.976,-3.801 1.954,-1.25 0.317,0.825 0.953,1.5 1.413,1.5 0.46,0 0.01,-1.912 -1,-4.25 -1.01,-2.337 -2.156,-5.375 -2.545,-6.75 -0.639,-2.253 -0.407,-2.154 2.352,1 3.777,4.319 3.923,3.649 0.527,-2.426 -1.438,-2.573 -2.358,-4.934 -2.046,-5.246 0.313,-0.313 -0.825,-3.327 -2.528,-6.698 -1.703,-3.372 -4.137,-9.28 -5.409,-13.13 l -2.313,-7 2.205,2.971 c 4.81,6.48 13.786,13.553 17.117,13.489 1.826,-0.035 1.738,-0.23 -0.7,-1.552 -3.359,-1.822 -14.378,-15.53 -18.271,-22.73 l -2.8,-5.178 3.969,3.557 c 4.477,4.011 12.848,9.943 14.033,9.943 0.43,0 -3.026,-3.633 -7.68,-8.073 -4.654,-4.441 -6.974,-7.092 -5.154,-5.891 5.856,3.864 4.579,1.263 -1.82,-3.707 -4.119,-3.198 -7.027,-6.446 -8.662,-9.673 -1.367,-2.697 -1.876,-4.508 -1.144,-4.072 2.068,1.233 13.238,10.793 14.028,12.006 0.391,0.6 1.59,2.175 2.664,3.5 3.8,4.687 3.193,1.004 -1.312,-7.966 -2.509,-4.996 -4.562,-9.409 -4.562,-9.807 0,-1.215 7.95,6.904 11.44,11.683 4.91,6.723 9.01,14.674 11.557,22.414 3.597,10.93 2.272,21.813 -7.284,59.815 -0.904,3.595 -2.992,7.784 -5.607,11.247 -2.292,3.035 -4.433,6.212 -4.758,7.06 -0.325,0.848 -2.224,2.404 -4.22,3.458 -4.342,2.295 -2.973,2.568 2.75,0.549 l 4.129,-1.457 -1.529,2.957 c -2.216,4.285 -0.053,3.635 2.638,-0.793 1.253,-2.062 2.752,-4.081 3.331,-4.485 2.387,-1.665 2.625,-0.552 0.611,2.861 -2.448,4.15 -2.232,5.329 0.436,2.38 1.023,-1.13 3.083,-2.006 4.718,-2.006 4.743,0 11.468,-2.053 13.779,-4.207 1.974,-1.839 2.105,-2.665 1.521,-9.652 l -0.639,-7.641 2.126,2.5 2.126,2.5 -0.651,-2.5 c -0.531,-2.038 -0.17,-1.811 1.956,1.225 2.72,3.885 6.57,6.704 6.57,4.81 0,-0.569 -0.441,-1.035 -0.98,-1.035 -1.902,0 -9.594,-17.804 -8.756,-20.266 0.231,-0.679 1.345,0.566 2.475,2.766 2.404,4.68 6.65,9.5 8.368,9.5 0.737,0 0.504,-0.772 -0.599,-1.991 -1.933,-2.136 -2.901,-8.009 -1.32,-8.009 0.525,0 0.185,-0.77 -0.755,-1.71 -1.704,-1.704 -3.537,-5.535 -4.922,-10.29 -0.616,-2.115 0.026,-1.768 4.165,2.25 5.197,5.045 8.329,6.577 4.248,2.077 l -2.424,-2.673 3.594,2.673 c 5.32,3.956 5.435,3.295 0.486,-2.781 -4.962,-6.093 -8.651,-12.068 -11.141,-18.046 l -1.666,-4 2.222,2 c 1.222,1.1 3.501,4.475 5.065,7.5 2.775,5.366 3.915,5.694 1.965,0.565 -1.147,-3.016 -1.261,-2.979 3.321,-1.065 5.194,2.17 7.938,1.725 3.154,-0.511 -2.2,-1.029 -5.125,-2.822 -6.5,-3.986 l -2.5,-2.116 4,1.934 c 4.199,2.031 10.5,3.714 10.5,2.805 0,-0.293 -2.061,-1.444 -4.58,-2.558 -7.524,-3.328 -11.806,-7.315 -13.112,-12.208 -0.637,-2.388 -1.036,-4.465 -0.886,-4.616 0.151,-0.15 2.255,0.815 4.676,2.145 4.671,2.565 13.624,4.589 12.54,2.834 -0.339,-0.548 -2.143,-1.283 -4.009,-1.633 -3.248,-0.609 -12.271,-6.281 -11.392,-7.16 0.233,-0.233 2.781,0.277 5.664,1.133 8.894,2.641 8.91,1.117 0.024,-2.353 -8.433,-3.292 -13.906,-6.562 -12.814,-7.655 0.32,-0.32 2.212,0.1 4.203,0.932 6.95,2.904 8.525,1.626 1.936,-1.569 -5.24,-2.542 -6.25,-3.443 -6.25,-5.582 0,-1.914 0.394,-2.399 1.582,-1.943 0.87,0.334 3.123,0.607 5.006,0.607 2.43,0 4.073,0.745 5.655,2.565 2.076,2.388 7.775,6.435 9.06,6.435 0.312,0 -1.541,-2.185 -4.118,-4.856 -2.577,-2.67 -5.555,-6.368 -6.619,-8.216 -1.81,-3.144 -1.424,-2.964 5.981,2.791 4.354,3.384 8.115,5.952 8.359,5.708 0.244,-0.244 -3.854,-4.603 -9.107,-9.685 -11.789,-11.407 -16.471,-18.753 -6.528,-10.242 2.249,1.925 5.02,3.486 6.159,3.47 2,-0.03 2.005,-0.068 0.157,-1.141 -1.917,-1.113 -22.683,-21.829 -21.882,-21.829 0.235,0 1.343,0.491 2.464,1.091 1.843,0.986 7.032,2.043 16.831,3.429 2.451,0.347 2.912,0.242 1.536,-0.35 -1.809,-0.78 -1.757,-0.898 0.671,-1.507 1.449,-0.364 3.419,-0.36 4.378,0.008 1.188,0.456 1.513,0.296 1.02,-0.501 -0.398,-0.644 -1.879,-1.17 -3.292,-1.17 -1.413,0 -5.067,-1.429 -8.118,-3.175 -4.689,-2.682 -5.25,-3.292 -3.622,-3.929 1.59,-0.623 1.43,-0.768 -0.914,-0.826 -1.731,-0.043 -4.446,-1.443 -6.947,-3.584 -2.258,-1.933 -5.93,-3.981 -8.159,-4.55 -2.229,-0.569 -4.592,-1.214 -5.251,-1.434 -1.465,-0.488 -4.696,-6.502 -3.493,-6.502 1.364,0 12.502,3.776 17.658,5.986 2.584,1.108 6.349,1.968 8.366,1.912 3.667,-0.103 3.667,-0.103 0.667,-0.841 -1.65,-0.407 -6.825,-2.673 -11.5,-5.036 -4.675,-2.363 -10.075,-4.909 -12,-5.657 -3.191,-1.239 -2.372,-1.333 9.261,-1.066 12.815,0.295 15.204,-0.918 3.94,-2 -4.376,-0.42 -6.398,-1.192 -8.701,-3.321 -1.65,-1.525 -6.15,-4.344 -10,-6.264 -3.85,-1.921 -7.9,-4.506 -9,-5.744 -1.1,-1.238 -3.693,-3.018 -5.762,-3.955 l -3.761,-1.704 6.011,-2.388 c 7.29,-2.895 7.918,-4.365 1.012,-2.368 -2.75,0.795 -7.332,2.121 -10.182,2.946 -5.59,1.618 -11.818,1.99 -11.818,0.706 0,-0.437 7.763,-3.388 17.25,-6.558 9.734,-3.253 15.289,-5.501 12.75,-5.16 -2.475,0.332 -7.65,0.81 -11.5,1.063 l -7,0.461 6,-1.617 c 5.813,-1.566 10.875,-4.375 5.5,-3.052 -2.347,0.578 -9.047,1.568 -23.774,3.513 -4.59,0.607 -6.737,0.491 -7.999,-0.432 -2.571,-1.88 -1.11,-2.593 7.746,-3.778 4.415,-0.592 8.027,-1.366 8.027,-1.722 0,-0.356 -1.013,-0.506 -2.25,-0.334 -1.237,0.171 -5.85,0.526 -10.25,0.788 -7.579,0.452 -7.851,0.397 -5.162,-1.029 4.393,-2.33 2.479,-2.651 -3.119,-0.524 -5.747,2.183 -9.106,1.384 -5.714,-1.36 1.945,-1.573 1.932,-1.596 -0.505,-0.918 -1.375,0.383 -4.525,0.891 -7,1.129 l -4.5,0.433 4.243,-2.804 c 5.692,-3.763 5.401,-4.914 -0.493,-1.951 -6.119,3.075 -11.259,4.541 -6.249,1.782 3.877,-2.135 7.928,-6.136 6.213,-6.136 -0.603,0 -1.405,0.5 -1.783,1.112 -0.731,1.183 -9.263,5.174 -13.431,6.282 -1.375,0.365 -0.318,-0.505 2.348,-1.934 2.666,-1.429 4.618,-2.827 4.338,-3.107 -0.28,-0.28 -3.812,0.663 -7.848,2.097 l -7.338,2.607 3.25,-2.601 c 1.788,-1.431 3.25,-3.088 3.25,-3.683 0,-0.596 -0.788,-0.376 -1.75,0.488 -1.909,1.714 -8.009,4.202 -12.75,5.2 -2.212,0.466 -0.999,-0.662 4.617,-4.295 4.19,-2.71 7.965,-5.489 8.389,-6.176 0.914,-1.478 1.002,-1.513 -8.256,3.281 -3.987,2.065 -7.25,3.298 -7.25,2.742 0,-0.557 -1.575,-1.013 -3.5,-1.013 -3.21,0 -3.5,-0.245 -3.5,-2.953 0,-5.142 1.835,-7.637 6.844,-9.305 4.235,-1.411 4.385,-1.562 1.656,-1.678 -2.849,-0.121 -2.903,-0.201 -1.073,-1.585 1.06,-0.802 1.651,-1.734 1.314,-2.071 -0.789,-0.789 -10.415,3.855 -13.975,6.742 -1.503,1.219 -2.991,1.958 -3.307,1.642 -0.315,-0.315 3.165,-3.278 7.734,-6.583 8.834,-6.392 13.534,-10.815 12.544,-11.806 -0.333,-0.332 -1.647,0.379 -2.921,1.581 -2.407,2.271 -7.816,5.436 -7.816,4.574 0,-0.272 1.237,-1.165 2.75,-1.986 3.866,-2.097 0.163,-2.096 -3.893,0.002 -3.671,1.898 -4.227,1.529 -2.91,-1.935 0.645,-1.696 0.655,-2.639 0.028,-2.639 -0.536,0 -0.992,0.338 -1.013,0.75 -0.02,0.412 -1.628,2.55 -3.573,4.75 -3.009,3.404 -3.429,3.628 -2.818,1.5 0.394,-1.375 1.777,-3.892 3.073,-5.594 3.292,-4.325 2.935,-5.071 -0.888,-1.854 l -3.244,2.729 -0.706,-2.89 c -2.38,-9.748 -2.137,-9.343 -2.751,-4.579 L 168,46.623 165.612,41.562 c -1.313,-2.784 -2.742,-5.062 -3.174,-5.062 -0.83,0 -0.282,6.634 0.676,8.185 0.309,0.499 0.265,3.062 -0.098,5.696 -0.608,4.421 -0.99,4.951 -4.966,6.883 l -4.308,2.092 -0.649,-5.678 c -0.991,-8.672 -2.556,-9.987 -2.593,-2.178 -0.043,9.229 -1.446,10.556 -2.763,2.613 -1.542,-9.306 0.853,-16.743 8.235,-25.579 5.053,-6.049 3.459,-6.376 -2.495,-0.511 l -4.977,4.902 v -9.631 c 0,-9.944 -0.493,-12.794 -2.214,-12.794 -0.55,0 -0.735,0.691 -0.41,1.536 0.324,0.845 -0.303,3.201 -1.393,5.235 L 142.5,20.97 v -2.897 c 0,-3.16 -3.017,-13.573 -3.933,-13.573 -0.312,0 -0.635,1.013 -0.718,2.25 -0.244,3.634 -4.162,13.413 -4.708,11.75 -0.27,-0.825 -0.832,-3.75 -1.249,-6.5 -0.751,-4.961 -0.761,-4.973 -1.335,-1.5 l -0.579,3.5 -1.954,-3.25 c -1.076,-1.787 -2.271,-3.25 -2.658,-3.25 -0.386,0 -1.389,-0.263 -2.228,-0.585 -1.106,-0.425 -0.573,1.671 1.945,7.64 1.908,4.525 3.171,8.501 2.806,8.836 -0.365,0.335 -0.841,0.159 -1.058,-0.391 -2.622,-6.64 -7.243,-15.971 -8.04,-16.236 -0.65,-0.217 -0.577,1.392 0.199,4.448 0.67,2.634 1.533,6.138 1.919,7.788 l 0.703,3 -1.706,-2.5 c -0.937,-1.375 -3.23,-4.112 -5.094,-6.082 -2.982,-3.151 -3.268,-3.903 -2.376,-6.25 0.558,-1.467 0.624,-2.668 0.146,-2.668 -0.477,0 -1.138,0.704 -1.468,1.563 -0.933,2.432 -2.603,0.669 -2.719,-2.872 L 108.29,0 106.972,4 c -0.725,2.2 -1.39,5.575 -1.477,7.5 l -0.158,3.5 -1.499,-3.44 c -0.824,-1.892 -1.3,-4.479 -1.057,-5.75 0.243,-1.27 0.09,-2.31 -0.34,-2.31 -1.241,0 -2.111,5.475 -1.351,8.502 1.151,4.586 -1.608,2.585 -6.59,-4.779 C 89.855,0.356 87.267,-1.785 90,3.5 c 1.815,3.511 1.274,3.754 -2.227,1 -1.399,-1.1 -3.805,-2 -5.349,-2 C 80.881,2.5 79.34,2.05 79,1.5 78.238,0.267 76.5,0.181 76.5,1.378 M 86,8.036 c 2.75,2.446 6.712,6.363 8.805,8.705 3.322,3.719 3.621,3.878 2.353,1.259 C 95.422,14.412 84.205,3.481 82.324,3.545 81.596,3.569 83.25,5.591 86,8.036 m 21.561,3.464 c 0,2.855 0.188,3.178 1.019,1.75 0.692,-1.189 0.692,-2.311 0,-3.5 -0.831,-1.428 -1.019,-1.105 -1.019,1.75 M 68.583,9.75 C 68.813,9.888 70.35,11.125 72,12.5 L 75,15 72.576,12.25 C 71.242,10.737 69.705,9.5 69.159,9.5 c -0.546,0 -0.805,0.112 -0.576,0.25 m 69.081,4.646 c -1.36,6.087 -1.164,6.881 1.075,4.36 1.164,-1.31 1.379,-2.771 0.846,-5.756 l -0.715,-4 -1.206,5.396 m -49.05,2.354 c 2.055,4.054 3.88,6.089 4.713,5.256 0.388,-0.387 -5.863,-9.506 -6.517,-9.506 -0.193,0 0.619,1.912 1.804,4.25 m 21.318,1.261 c -0.807,4.3 0.893,6.828 3.959,5.887 1.16,-0.355 2.287,-0.806 2.505,-1.002 0.442,-0.396 -4.67,-8.396 -5.365,-8.396 -0.242,0 -0.737,1.58 -1.099,3.511 m 35.193,3.614 c -0.344,1.719 -0.625,4.984 -0.625,7.257 0,2.272 -0.417,5.585 -0.926,7.361 -0.51,1.777 -0.566,3.453 -0.125,3.725 0.884,0.547 1.586,-3.259 2.623,-14.218 0.702,-7.419 0.173,-9.725 -0.947,-4.125 M 138.138,24 c -0.316,0.825 -0.139,1.5 0.393,1.5 0.533,0 0.969,-0.675 0.969,-1.5 0,-0.825 -0.177,-1.5 -0.393,-1.5 -0.216,0 -0.652,0.675 -0.969,1.5 M 61,29.37 c -9.517,2.544 -16.529,8.927 -18.816,17.13 -3.768,13.51 -2.902,22.368 3.434,35.138 3.322,6.695 12.206,17.177 16.98,20.036 7.105,4.253 10.335,5.943 8.527,4.46 -1.239,-1.016 -1.635,-2.148 -1.167,-3.336 0.389,-0.989 1.062,-3.823 1.495,-6.298 0.433,-2.475 1.115,-5.28 1.517,-6.233 0.655,-1.553 0.383,-1.624 -2.62,-0.685 -1.842,0.576 -4.181,1.499 -5.197,2.052 -2.609,1.418 -3.302,0.24 -1.216,-2.065 2.154,-2.38 1.168,-4.362 -1.771,-3.558 -2.115,0.579 -2.12,0.556 -0.225,-0.959 1.068,-0.854 2.53,-1.552 3.25,-1.552 0.72,0 1.309,-0.378 1.309,-0.84 0,-0.462 1.682,-2.037 3.738,-3.5 l 3.738,-2.66 -4.488,-0.03 c -5.536,-0.038 -3.613,-1.414 3.39,-2.426 9.159,-1.324 9.809,-2.437 2.951,-5.056 -4.656,-1.778 -4.677,-1.777 -6.5,0.475 -1.777,2.194 -1.829,2.2 -1.829,0.207 0,-1.129 0.472,-2.344 1.049,-2.7 0.729,-0.451 0.723,-1.039 -0.018,-1.932 -0.586,-0.707 -0.805,-1.963 -0.487,-2.792 0.458,-1.194 1.346,-1.33 4.267,-0.651 4.036,0.938 9.655,1.097 7.189,0.204 -7.179,-2.6 -16,-6.647 -16,-7.341 0,-0.471 1.588,-0.192 3.53,0.619 4.153,1.735 20.499,5.728 21.078,5.148 0.22,-0.219 -2.805,-3.622 -6.721,-7.562 -3.916,-3.94 -6.869,-7.163 -6.561,-7.163 0.308,0 2.18,0.956 4.16,2.124 1.979,1.168 3.861,1.862 4.181,1.543 0.319,-0.32 2.307,0.299 4.417,1.376 2.11,1.076 4.074,1.957 4.364,1.957 0.291,0 0.816,-1.8 1.168,-4 0.352,-2.2 1.032,-4 1.512,-4 0.48,0 0.872,-0.338 0.872,-0.75 0.001,-1.162 -12.091,-0.559 -13.315,0.665 -1.434,1.434 -2.995,1.396 -2.1,-0.052 0.392,-0.636 -0.354,-1.944 -1.691,-2.964 L 76,39.572 l 3.689,0.585 c 2.818,0.447 4.303,0.101 6.297,-1.467 1.434,-1.128 3.932,-2.342 5.549,-2.698 3.913,-0.859 4.79,-2.492 1.338,-2.492 -1.509,0 -3.786,0.978 -5.059,2.174 -2.433,2.286 -3.085,1.135 -1.274,-2.249 0.879,-1.642 0.621,-2.104 -1.664,-2.972 C 81.313,29.098 64.816,28.35 61,29.37 m 58.237,1.822 c -1.644,0.429 -1.627,0.632 0.25,3.019 1.107,1.407 2.013,3.085 2.013,3.728 0,0.643 1.575,2.695 3.5,4.561 l 3.5,3.392 v -6.661 c 0,-5.562 -0.319,-6.831 -1.934,-7.696 -1.976,-1.057 -4.193,-1.161 -7.329,-0.343 M 91,39.5 c -2.548,1.095 0.081,1.095 3.5,0 2.01,-0.644 2.108,-0.806 0.5,-0.83 -1.1,-0.016 -2.9,0.357 -4,0.83 m 15.531,1.688 c 0.017,0.447 2.503,4.187 5.525,8.312 3.021,4.125 7.304,10.191 9.517,13.479 2.212,3.288 5.351,6.82 6.975,7.848 l 2.952,1.869 v -2.697 c 0,-4.275 -2.752,-8.988 -9.487,-16.252 -6.042,-6.515 -15.545,-14.224 -15.482,-12.559 m 26.048,0.895 c 0.048,1.165 0.285,1.402 0.604,0.605 0.289,-0.722 0.253,-1.585 -0.079,-1.917 -0.332,-0.332 -0.568,0.258 -0.525,1.312 m -29.424,1.874 c -0.674,1.755 5.908,11.86 10.448,16.043 l 3.257,3 -2.201,-3.5 c -1.21,-1.925 -3.822,-6.537 -5.804,-10.25 -3.682,-6.899 -4.716,-7.858 -5.7,-5.293 m -2.655,6.388 c 0,0.465 0.938,1.694 2.084,2.731 2.078,1.881 2.08,1.879 0.839,-0.845 -1.179,-2.587 -2.923,-3.713 -2.923,-1.886 m -13.278,3.229 c 1.222,1.273 2.474,2.063 2.781,1.756 0.308,-0.308 -0.692,-1.349 -2.222,-2.315 L 85,51.259 l 2.222,2.315 m 51.459,3.863 c 0.175,2.424 0.839,4.578 1.474,4.787 0.852,0.28 0.903,-0.743 0.196,-3.894 -1.308,-5.82 -2.056,-6.22 -1.67,-0.893 M 98.5,55.893 c 0,0.216 0.698,0.661 1.552,0.989 0.89,0.341 1.291,0.173 0.941,-0.393 C 100.406,55.538 98.5,55.083 98.5,55.893 m -29,7.607 c 0.825,0.533 2.175,0.969 3,0.969 1.333,0 1.333,-0.107 0,-0.969 -0.825,-0.533 -2.175,-0.969 -3,-0.969 -1.333,0 -1.333,0.107 0,0.969 m 82.902,5.777 -4.402,4.133 3.588,3.616 3.588,3.617 1.685,-2.572 c 1.564,-2.387 1.568,-2.75 0.047,-5.071 -0.909,-1.388 -1.168,-2.5 -0.582,-2.5 0.581,0 1.334,0.45 1.674,1 0.717,1.16 3.502,1.36 3.495,0.25 -0.003,-0.412 -1.059,-2.068 -2.348,-3.678 l -2.343,-2.928 -4.402,4.133 M 78.313,67.183 c 0.721,0.289 1.584,0.253 1.916,-0.079 0.332,-0.332 -0.258,-0.568 -1.312,-0.525 -1.165,0.048 -1.402,0.285 -0.604,0.604 m 101.747,1.251 c -1.698,1.876 -4.711,9.229 -4.056,9.897 1.04,1.06 4.496,-2.246 4.496,-4.301 0,-1.32 0.439,-3.554 0.975,-4.965 1.168,-3.072 0.901,-3.191 -1.415,-0.631 m -79.773,2.388 c -4.69,0.876 -4.712,0.9 -4.4,4.573 0.688,8.122 5.844,20.105 8.649,20.105 1.577,0 10.265,-3.152 17.099,-6.203 5.452,-2.434 6.544,-3.308 6.127,-4.902 -0.426,-1.628 -1.072,-1.834 -4.029,-1.279 -4.46,0.837 -3.626,-1.007 1.407,-3.11 4.246,-1.774 3.698,-3.104 -1.649,-4.008 -2.2,-0.371 -3.787,-1.02 -3.527,-1.44 1.517,-2.455 -12.397,-5.096 -19.677,-3.736 m 70.471,2.904 c -1.374,1.705 -2.799,8.615 -1.5,7.274 1.131,-1.167 3.42,-7.655 2.889,-8.186 -0.199,-0.199 -0.824,0.211 -1.389,0.912 m -83.149,4.621 c -2.092,2.938 -2.722,6.206 -1.444,7.485 0.366,0.366 1.486,-1.665 2.488,-4.512 1.003,-2.847 1.653,-5.347 1.444,-5.556 -0.208,-0.209 -1.328,0.954 -2.488,2.583 m 98.641,-0.685 c -1.513,0.553 -2.75,1.378 -2.75,1.834 0,0.457 1.35,0.321 3,-0.302 1.65,-0.623 3,-1.484 3,-1.913 0,-0.43 -0.112,-0.745 -0.25,-0.702 -0.138,0.043 -1.487,0.531 -3,1.083 M 89.579,91.083 c 0.048,1.165 0.285,1.402 0.604,0.605 0.289,-0.722 0.253,-1.585 -0.079,-1.917 -0.332,-0.332 -0.568,0.258 -0.525,1.312 M 205.5,90.5 c -1.333,0.862 -1.333,0.963 0,0.914 0.825,-0.03 2.4,-0.441 3.5,-0.914 l 2,-0.859 -2,-0.055 c -1.1,-0.031 -2.675,0.381 -3.5,0.914 m 13,0 c -1.333,0.862 -1.333,0.963 0,0.914 0.825,-0.03 2.4,-0.441 3.5,-0.914 l 2,-0.859 -2,-0.055 c -1.1,-0.031 -2.675,0.381 -3.5,0.914 m 10.058,3.396 c -2.511,0.907 -3.01,1.408 -1.846,1.855 0.877,0.337 2.426,0.445 3.442,0.241 6.373,-1.282 7.367,-1.649 6.828,-2.521 -0.792,-1.282 -4.172,-1.112 -8.424,0.425 M 76.624,95.269 c -0.571,1.067 -1.329,4.818 -1.683,8.335 -0.609,6.037 -0.496,6.536 2.021,8.881 l 2.667,2.485 -0.928,-2.485 c -1.673,-4.479 -2.246,-11.42 -1.231,-14.919 1.14,-3.93 0.686,-5.161 -0.846,-2.297 M 84.159,98 c -0.451,1.1 -1.074,6.142 -1.384,11.205 -0.459,7.492 -0.261,9.667 1.062,11.687 3.842,5.864 5.459,9.602 7.603,17.576 1.822,6.779 2.142,9.819 1.607,15.25 -0.367,3.73 -0.288,6.782 0.177,6.782 0.464,0 3.181,-2.366 6.037,-5.258 3.466,-3.51 5.414,-6.418 5.858,-8.75 1.529,-8.01 9.63,-18.422 18.016,-23.155 2.951,-1.665 5.365,-3.394 5.365,-3.842 0,-0.929 -8.524,1.144 -11.708,2.849 -1.164,0.622 -3.727,3.015 -5.698,5.317 -1.97,2.301 -3.853,3.913 -4.184,3.582 -0.838,-0.838 5.017,-9.147 8.221,-11.667 2.363,-1.859 2.43,-2.076 0.643,-2.076 -1.097,0 -3.653,-1.125 -5.679,-2.5 -5.55,-3.767 -6.836,-3.296 -4.095,1.5 2.371,4.148 1.732,5.796 -0.969,2.5 -2.164,-2.64 -2.463,-2.757 -2.495,-0.971 -0.02,1.116 -0.895,2.649 -1.945,3.405 -1.05,0.757 -1.657,2.034 -1.348,2.838 0.454,1.184 0.178,1.256 -1.461,0.379 -1.112,-0.595 -3.039,-3.589 -4.283,-6.652 -2.386,-5.88 -3.795,-7.081 -1.888,-1.61 1.846,5.295 0.214,4.687 -2.664,-0.993 -1.776,-3.505 -2.904,-7.693 -3.327,-12.35 C 85.16,97.979 84.75,96.562 84.159,98 m 119.341,2.786 c 3.21,3.276 22.828,14.566 23.439,13.489 2.248,-3.964 2.348,-5.776 0.455,-8.183 -1.101,-1.399 -3.665,-2.969 -5.698,-3.489 -4.326,-1.106 -18.928,-2.564 -18.196,-1.817 m -72.25,2.876 c -2.599,0.95 -3.818,2.838 -1.832,2.838 0.505,0 1.573,0.251 2.373,0.558 0.981,0.377 1.613,-0.274 1.943,-2 0.269,-1.407 0.439,-2.522 0.377,-2.479 -0.061,0.043 -1.349,0.531 -2.861,1.083 M 79.752,107 c 0.011,2.2 0.216,2.982 0.455,1.738 0.239,-1.244 0.23,-3.044 -0.02,-4 -0.25,-0.956 -0.446,0.062 -0.435,2.262 m 16.171,0.75 c 0.254,1.238 0.737,4.05 1.073,6.25 0.336,2.2 0.875,4.893 1.199,5.984 0.567,1.912 0.617,1.905 1.397,-0.203 0.533,-1.441 0.112,-4.25 -1.233,-8.234 -2.047,-6.06 -3.301,-8.015 -2.436,-3.797 m 72.803,-0.676 c 0.95,0.994 2.001,1.533 2.336,1.197 0.335,-0.335 -0.442,-1.148 -1.726,-1.807 -2.233,-1.145 -2.26,-1.118 -0.61,0.61 m -45.684,0.358 c -0.392,0.635 0.238,1.068 1.554,1.068 2.082,0 2.115,0.109 0.559,1.829 -2.436,2.692 -2.082,3.171 2.345,3.171 2.2,0 4,-0.413 4,-0.918 0,-0.505 0.25,-1.569 0.555,-2.364 0.379,-0.988 -0.334,-1.625 -2.25,-2.012 -1.543,-0.311 -3.547,-0.853 -4.454,-1.204 -0.907,-0.351 -1.946,-0.158 -2.309,0.43 m 31.125,0.735 c -0.367,0.366 -0.667,2.671 -0.667,5.122 0,3.847 -0.205,4.286 -1.5,3.211 -1.209,-1.004 -1.507,-0.979 -1.535,0.128 -0.02,0.754 -0.658,0.247 -1.419,-1.127 l -1.383,-2.499 -0.693,2.762 c -0.796,3.17 0.475,5.139 4.74,7.345 1.737,0.898 2.586,1.949 2.168,2.684 -0.378,0.664 0.749,-0.131 2.504,-1.765 4.226,-3.936 4.698,-6.428 2.26,-11.939 -1.949,-4.406 -3.037,-5.36 -4.475,-3.922 m 88.165,1.018 c 1.148,2.146 5.168,5.96 5.168,4.904 0,-1.619 -2.174,-4.612 -4.099,-5.642 -1.817,-0.972 -1.94,-0.888 -1.069,0.738 m 15.168,-1.211 c 0,1.693 6.729,3.59 11.794,3.325 L 275,111 l -3.2,-1.75 c -2.87,-1.569 -14.3,-2.589 -14.3,-1.276 m -21,2.129 c 0,0.482 0.788,2.782 1.75,5.111 1.3,3.147 2.452,4.39 4.483,4.837 5.856,1.287 5.688,0.272 -0.983,-5.938 -2.888,-2.688 -5.25,-4.492 -5.25,-4.01 m -64.757,1.104 c -2.099,0.404 -2.152,0.585 -0.75,2.586 0.829,1.184 1.505,3.064 1.502,4.18 -0.004,1.778 -0.312,1.658 -2.502,-0.973 -2.333,-2.803 -2.3,-2.615 0.505,2.852 3.036,5.918 3.712,8.648 2.141,8.648 -1.177,0 0.995,7.839 2.309,8.336 0.579,0.218 3.302,-0.233 6.052,-1.003 2.75,-0.769 6.913,-1.668 9.25,-1.996 4.672,-0.656 4.762,-0.787 2.874,-4.191 l -1.306,-2.354 -2.221,2.854 -2.221,2.854 0.607,-3.75 c 0.773,-4.77 -0.857,-4.925 -3.563,-0.339 -1.107,1.876 -2.666,3.661 -3.466,3.968 -2.1,0.806 -2.067,0.677 1.83,-7.129 2.322,-4.65 0.52,-4.026 -2.164,0.75 -2.218,3.947 -5.019,5.687 -3.623,2.25 0.391,-0.963 1.082,-2.986 1.536,-4.496 0.454,-1.51 1.766,-4.068 2.917,-5.683 l 2.091,-2.938 -3.365,-2.566 c -3.333,-2.543 -4.056,-2.702 -8.433,-1.86 M 60.921,113.5 c 2.31,10.785 3.032,13.04 4.049,12.65 0.784,-0.301 1.042,1.38 0.84,5.458 -0.169,3.422 0.124,5.892 0.699,5.892 0.545,0 0.991,-1.566 0.991,-3.48 0,-1.914 0.72,-5.28 1.601,-7.48 1.588,-3.97 1.577,-4.033 -1.398,-8.078 -1.823,-2.48 -3.169,-3.565 -3.436,-2.77 -0.268,0.802 -1.104,0.147 -2.16,-1.692 -1.579,-2.75 -1.677,-2.792 -1.186,-0.5 m 58.347,-0.832 c 0.582,0.582 1.647,0.86 2.369,0.62 0.749,-0.25 0.295,-0.703 -1.057,-1.057 -1.663,-0.435 -2.054,-0.305 -1.312,0.437 m 87.055,6.864 c 3.397,4.037 6.177,7.706 6.177,8.154 0,1.29 -1.182,0.956 -3.313,-0.936 -1.918,-1.703 -1.933,-1.69 -0.588,0.5 0.76,1.238 2.344,2.25 3.519,2.25 7.153,0 3.227,-9.183 -6.045,-14.138 l -5.928,-3.168 6.178,7.338 m 48.177,-3.294 c 0,0.48 1.125,2.398 2.5,4.262 3.084,4.18 3.086,4.345 0.05,3.765 -2.513,-0.481 -3.55,0.734 -3.55,4.158 0,1.178 1.284,2.145 3.881,2.923 2.135,0.64 4.44,1.836 5.123,2.659 1.05,1.265 0.8,1.513 -1.632,1.612 -1.773,0.072 -0.871,0.45 2.358,0.989 2.876,0.479 6.701,1.527 8.5,2.328 l 3.27,1.456 -4.5,-0.432 c -2.671,-0.256 -0.334,0.61 5.75,2.129 5.638,1.409 10.25,2.865 10.25,3.237 0,1.108 -7.206,0.611 -11.413,-0.787 -3.843,-1.277 -16.308,-0.945 -18.64,0.496 -1.986,1.227 18.178,7.46 24.543,7.586 l 6.01,0.118 -7,1.132 -7,1.131 5.5,1.397 c 6.835,1.735 12,4.129 12,5.561 0,0.598 1.994,1.55 4.43,2.115 l 4.43,1.028 -1.319,-3.051 c -6.021,-13.921 -7.555,-16.104 -20.072,-28.55 l -12.57,-12.5 2.108,4.967 c 1.159,2.731 2.587,5.544 3.173,6.25 0.76,0.915 0.741,1.283 -0.064,1.283 -0.621,0 -3.11,-3.09 -5.53,-6.866 -3.934,-6.137 -10.586,-12.67 -10.586,-10.396 m 15.452,0.185 c 0.314,0.508 2.028,1.214 3.809,1.57 1.782,0.356 7.136,1.966 11.899,3.577 12.766,4.319 14.557,3.679 4.195,-1.499 -5.577,-2.787 -6.811,-3.118 -5.855,-1.571 0.998,1.614 -0.49,1.153 -3.227,-1 -2.586,-2.034 -11.99,-2.97 -10.821,-1.077 m -35.452,6.492 c 1.375,0.735 3.625,1.677 5,2.093 2.489,0.754 2.492,0.748 0.595,-1.375 -1.191,-1.334 -3.065,-2.118 -5,-2.093 l -3.095,0.04 2.5,1.335 m -91.369,1.103 c -0.442,1.153 0.258,1.464 3.15,1.403 2.046,-0.043 3.044,-0.329 2.219,-0.635 -0.825,-0.306 -2.243,-0.937 -3.15,-1.403 -1.127,-0.578 -1.83,-0.377 -2.219,0.635 m 75.933,-0.225 c 0.376,0.986 0.935,1.541 1.243,1.233 0.308,-0.307 0.001,-1.114 -0.683,-1.793 -0.988,-0.98 -1.102,-0.865 -0.56,0.56 m 23.017,0.057 c 0.867,2.259 3.64,3.038 3.23,0.908 -0.184,-0.954 -1.115,-1.885 -2.069,-2.069 -1.195,-0.23 -1.556,0.131 -1.161,1.161 m 38.187,0.818 c 0.582,0.582 1.647,0.86 2.369,0.62 0.749,-0.25 0.295,-0.703 -1.057,-1.057 -1.663,-0.435 -2.054,-0.305 -1.312,0.437 m -122.018,1.131 c -3.312,1.309 -3.373,1.957 -0.601,6.442 1.799,2.911 2.296,3.215 3.052,1.865 0.67,-1.198 0.181,-2.248 -1.899,-4.078 l -2.802,-2.465 2.75,-0.031 c 1.764,-0.021 2.75,-0.57 2.75,-1.532 0,-0.825 -0.113,-1.452 -0.25,-1.394 -0.137,0.059 -1.488,0.596 -3,1.193 m 11.814,-0.006 c 0.376,0.986 0.935,1.541 1.243,1.233 0.308,-0.307 0.001,-1.114 -0.683,-1.793 -0.988,-0.98 -1.102,-0.865 -0.56,0.56 m -27.289,5.033 -3.225,1.174 3.455,2.365 c 2.752,1.884 4.221,2.235 7.225,1.727 3.512,-0.594 3.637,-0.533 1.829,0.885 -1.068,0.838 -2.62,1.523 -3.45,1.523 -1.013,0 -1.178,0.331 -0.502,1.007 0.583,0.583 2.965,0.739 5.652,0.371 l 4.644,-0.637 -2.468,-4.87 c -2.307,-4.551 -2.714,-4.866 -6.202,-4.795 -2.053,0.042 -5.184,0.604 -6.958,1.25 m 78.92,2.174 c 0.02,1.65 0.244,2.204 0.498,1.231 0.254,-0.973 0.237,-2.323 -0.037,-3 -0.274,-0.677 -0.481,0.119 -0.461,1.769 m -143.524,1.895 c 0.433,2.78 0.28,3.693 -0.533,3.191 -0.626,-0.387 -1.138,-1.551 -1.138,-2.586 0,-1.035 -0.401,-2.13 -0.891,-2.432 -1.256,-0.777 -3.849,3.504 -6.683,11.033 -2.056,5.461 -2.426,8.207 -2.426,17.989 0,11.509 0.007,11.543 2.25,10.859 1.238,-0.377 2.927,-1.277 3.755,-2 0.827,-0.723 5.44,-3.125 10.25,-5.336 9.089,-4.18 9.543,-4.754 7.996,-10.113 -0.654,-2.266 -0.779,-2.126 -1.344,1.5 l -0.623,4 -0.142,-4.191 c -0.078,-2.305 -0.548,-4.442 -1.044,-4.748 -0.495,-0.307 -1.253,-3.371 -1.683,-6.809 -0.675,-5.397 -0.877,-5.842 -1.48,-3.252 l -0.698,3 -0.119,-3.25 c -0.065,-1.787 -0.579,-3.137 -1.143,-3 -0.563,0.137 -1.898,-1.55 -2.967,-3.75 l -1.942,-4 0.605,3.895 m 138.412,-1.449 -2.417,0.605 2.754,1.804 c 3.109,2.038 4.334,1.556 2.987,-1.175 -0.657,-1.332 -1.572,-1.672 -3.324,-1.234 m 7.596,5.404 c -2.037,6.462 -2.044,6.65 -0.251,6.65 0.982,0 1.644,-1.731 2.121,-5.546 0.381,-3.05 0.494,-5.744 0.251,-5.988 -0.243,-0.243 -1.198,1.955 -2.121,4.884 m -83.217,1.584 c 2.73,2.786 5.573,5.066 6.319,5.066 2.46,0 -2.294,-5.37 -6.928,-7.825 l -4.353,-2.306 4.962,5.065 m 86.832,3.747 c -2.312,7.138 -1.685,10.371 1.168,6.017 1.129,-1.723 1.553,-4.141 1.343,-7.67 l -0.305,-5.154 -2.206,6.807 m -10.347,-3.238 c 2.126,2.264 2.564,2.396 3.341,1.006 1.073,-1.917 1.019,-1.973 -2.788,-2.89 l -3,-0.722 2.447,2.606 m 15.83,0.626 c -0.408,2.778 -0.337,2.843 1.396,1.274 2.189,-1.981 2.303,-2.947 0.43,-3.665 -0.953,-0.366 -1.533,0.394 -1.826,2.391 m -95.165,4.683 c 0.766,2.613 1.729,8.056 2.14,12.095 l 0.748,7.342 2.717,-2.141 2.717,-2.141 -1.937,-4.915 c -1.961,-4.975 -6.967,-14.992 -7.492,-14.992 -0.157,0 0.341,2.138 1.107,4.752 m 11.388,-3.9 c 0,1.331 4.395,7.49 5.404,7.573 0.497,0.041 1.716,-1.837 2.709,-4.175 l 1.805,-4.25 h -4.959 c -2.727,0 -4.959,0.383 -4.959,0.852 m 31,0.078 c -4.22,0.844 -8,2.784 -8,4.105 0,0.531 -0.536,0.853 -1.191,0.715 -2.695,-0.566 -1.683,3.384 1.881,7.34 5.135,5.7 12.574,8.914 20.589,8.896 3.421,-0.007 7.272,-0.295 8.556,-0.639 2.077,-0.556 2.261,-1.025 1.661,-4.236 -0.371,-1.986 -0.841,-3.78 -1.044,-3.987 -0.203,-0.206 -1.553,1.031 -3,2.75 -3.932,4.674 -4.433,3.793 -1.405,-2.472 2.334,-4.828 2.562,-6.067 1.658,-9.013 -0.866,-2.82 -1.411,-3.305 -3.127,-2.782 -3.636,1.106 -10.815,5.774 -14.446,9.393 -2.131,2.123 -3.236,2.768 -2.811,1.639 0.607,-1.609 0.327,-1.78 -2.06,-1.258 l -2.761,0.604 2.491,-1.742 c 1.37,-0.959 4.07,-3.135 6,-4.837 1.93,-1.702 4.409,-3.601 5.509,-4.22 1.768,-0.995 1.594,-1.115 -1.5,-1.041 -1.925,0.047 -5.075,0.4 -7,0.785 m 30,5.058 c 0,1.779 10.55,8.122 12.355,7.429 1.508,-0.578 1.456,-0.846 -0.487,-2.532 -1.196,-1.037 -2.674,-1.885 -3.286,-1.885 -0.611,0 -2.792,-0.901 -4.847,-2.002 -2.054,-1.101 -3.735,-1.556 -3.735,-1.01 m 11,-0.095 c 0,0.491 0.675,1.152 1.5,1.469 0.914,0.35 1.5,0.001 1.5,-0.893 0,-0.808 -0.675,-1.469 -1.5,-1.469 -0.825,0 -1.5,0.402 -1.5,0.893 m -91.848,1.107 c 0,0.825 0.607,3.075 1.348,5 0.741,1.925 1.348,2.825 1.348,2 0,-0.825 -0.607,-3.075 -1.348,-5 -0.741,-1.925 -1.348,-2.825 -1.348,-2 m 4.863,5.309 c -0.008,2.645 -0.413,4.563 -0.899,4.263 -0.685,-0.424 -0.392,12.219 0.305,13.134 0.087,0.113 1.44,-0.818 3.009,-2.068 l 2.852,-2.274 -1.664,-7.432 c -2.197,-9.812 -3.582,-11.975 -3.603,-5.623 M 241.5,152.917 c 0,1.97 -0.45,3.583 -1,3.583 -0.55,0 -1,-1.18 -1,-2.622 0,-2.116 -0.266,-2.402 -1.379,-1.478 -1.282,1.064 -3.08,6.581 -2.738,8.4 0.083,0.441 -1.22,1.954 -2.895,3.363 -3.837,3.229 -2.833,4.745 4.57,6.897 3.276,0.952 6.947,3.032 9.62,5.449 5.079,4.594 3.803,5.347 -1.678,0.991 -2.076,-1.65 -3.829,-3 -3.894,-3 -0.066,0 -1.587,-0.421 -3.382,-0.936 -2.026,-0.581 -3.043,-0.581 -2.684,0 0.794,1.285 -1.215,1.175 -3.856,-0.21 -2.168,-1.137 -2.17,-1.129 -0.279,1 2.497,2.813 1.051,2.672 -3.905,-0.38 -5.628,-3.466 -6.461,-3.073 -2.446,1.156 5.063,5.334 14.844,12.36 17.306,12.433 2.124,0.063 2.123,0.07 -0.093,0.962 -2.614,1.051 -8.395,-0.738 -15.118,-4.678 -2.428,-1.423 -4.1,-2.077 -3.715,-1.453 0.386,0.624 2.359,1.983 4.384,3.019 4.042,2.069 15.911,13.087 14.098,13.087 -0.621,0 -3.399,-1.807 -6.174,-4.016 -2.774,-2.209 -5.255,-3.805 -5.513,-3.546 -0.693,0.693 5.649,8.427 7.896,9.629 1.062,0.568 1.708,1.395 1.434,1.837 -0.273,0.442 0.727,1.378 2.222,2.081 5.253,2.468 0.351,2.085 -5.918,-0.463 l -6.341,-2.576 4.931,5.006 c 2.712,2.754 6.757,5.894 8.989,6.978 2.852,1.384 3.463,2.002 2.058,2.076 -1.276,0.067 -0.473,0.726 2.22,1.82 3.689,1.499 7.636,4.174 6.158,4.174 -0.287,0 -2.651,-0.726 -5.254,-1.612 -2.603,-0.887 -4.958,-1.387 -5.235,-1.111 -0.276,0.276 2.899,3.281 7.055,6.677 4.156,3.396 7.574,6.483 7.597,6.86 0.022,0.377 1.424,2.261 3.115,4.186 l 3.074,3.5 -0.646,-21.781 c -0.643,-21.659 -0.666,-21.836 -4.186,-31.733 -5.115,-14.385 -14.75,-36.27 -16.176,-36.745 -0.811,-0.271 -1.222,0.797 -1.222,3.176 m 64,-2.999 c 0,0.898 6.658,4.461 9.5,5.084 2.02,0.442 1.075,-0.349 -2.891,-2.422 -6.034,-3.155 -6.609,-3.386 -6.609,-2.662 m -154,2.582 c 0,0.55 0.477,1 1.059,1 0.582,0 0.781,-0.45 0.441,-1 -0.34,-0.55 -0.816,-1 -1.059,-1 -0.243,0 -0.441,0.45 -0.441,1 m 113.5,1 c 0.34,0.55 2.054,0.955 3.809,0.9 3.047,-0.095 3.078,-0.135 0.691,-0.9 -3.591,-1.15 -5.211,-1.15 -4.5,0 m -102.671,9 c -0.421,7.168 -0.199,9.009 1.417,11.75 1.055,1.787 2.187,3.25 2.518,3.25 0.661,0 20.537,-8.042 21.064,-8.523 0.18,-0.164 -2.218,-0.868 -5.328,-1.564 -4.889,-1.095 -6.301,-1.991 -10.432,-6.626 l -4.777,-5.359 0.832,5.299 c 0.466,2.973 0.439,6.611 -0.06,8.286 l -0.891,2.987 -0.147,-3.5 c -0.081,-1.925 -0.946,-5.975 -1.922,-9 l -1.775,-5.5 -0.499,8.5 m 49.171,-5.181 c 0,1.208 1.897,2.617 2.591,1.924 0.251,-0.252 -0.229,-1.027 -1.067,-1.723 -0.95,-0.789 -1.524,-0.865 -1.524,-0.201 m -88.77,6.878 c -1.196,3.68 -2.075,6.767 -1.953,6.86 0.123,0.092 2.136,0.412 4.473,0.71 3.569,0.456 4.25,0.266 4.25,-1.184 0,-1.99 -2.941,-11.218 -3.93,-12.33 -0.365,-0.411 -1.643,2.264 -2.84,5.944 m 106.372,-2.539 c -1.775,2.535 -2.035,3.842 -0.763,3.842 0.971,0 3.451,-5.043 2.8,-5.694 -0.239,-0.239 -1.156,0.594 -2.037,1.852 M 285.5,161.5 c 0.825,0.533 1.95,0.969 2.5,0.969 0.55,0 0.325,-0.436 -0.5,-0.969 -0.825,-0.533 -1.95,-0.969 -2.5,-0.969 -0.55,0 -0.325,0.436 0.5,0.969 M 158.138,164 c 0.317,0.825 0.753,1.5 0.969,1.5 0.216,0 0.393,-0.675 0.393,-1.5 0,-0.825 -0.436,-1.5 -0.969,-1.5 -0.532,0 -0.709,0.675 -0.393,1.5 m -27.52,4.25 c -0.065,2.912 0.327,5.25 0.882,5.25 1.131,0 1.131,-3.056 0,-7.5 -0.653,-2.564 -0.781,-2.238 -0.882,2.25 M 284.5,166.915 c 1.925,0.701 4.85,1.554 6.5,1.896 2.576,0.534 2.435,0.354 -1,-1.27 -2.2,-1.041 -5.125,-1.894 -6.5,-1.896 -2.141,-0.004 -1.997,0.179 1,1.27 m 11.861,0.501 c 2.77,2.445 4.314,2.702 3.501,0.584 -0.317,-0.825 -0.941,-1.5 -1.387,-1.5 -0.446,0 -1.636,-0.263 -2.643,-0.584 -1.427,-0.454 -1.31,-0.122 0.529,1.5 M 84,171.103 c -3.382,1.716 -13.621,12.392 -12.941,13.493 1.014,1.641 5.418,-1.869 7.36,-5.866 1.235,-2.542 3.521,-5.147 5.586,-6.365 1.922,-1.135 3.495,-2.243 3.495,-2.464 0,-0.555 -0.117,-0.515 -3.5,1.202 m 13.738,2.148 c -2.415,1.202 -3.564,2.678 -4.424,5.686 -1.148,4.011 -1.17,4.026 -1.738,1.203 -0.573,-2.846 -0.585,-2.851 -2.401,-0.839 -1.467,1.626 -1.69,2.919 -1.136,6.61 0.637,4.247 0.906,4.589 3.607,4.589 6.051,0 13.497,-4.935 7.604,-5.04 -2.03,-0.036 -1.957,-0.193 0.75,-1.607 1.65,-0.862 3.563,-2.28 4.25,-3.151 1.474,-1.868 1.673,-6.202 0.285,-6.202 -1.807,0 -8.051,6.214 -8.652,8.611 -0.33,1.314 -1.001,2.389 -1.491,2.389 -1.123,0 -1.122,-0.013 0.242,-4.101 0.624,-1.869 2.512,-4.862 4.196,-6.649 3.464,-3.677 3.416,-3.742 -1.092,-1.499 M 296,173.105 c 3.6,2.774 5.5,3.566 5.5,2.29 0,-1.655 -3.124,-3.831 -5.5,-3.831 h -2 l 2,1.541 m -225.25,2.384 c -3.364,2.051 -3.892,3.446 -2.274,6.006 1.027,1.625 1.962,0.734 5.507,-5.245 1.933,-3.26 1.163,-3.441 -3.233,-0.761 m 107.024,1.198 -10.226,3.063 2.707,2.125 c 1.488,1.169 3.024,2.022 3.412,1.896 1.456,-0.472 16.053,-10.268 15.211,-10.209 -0.483,0.034 -5.48,1.441 -11.104,3.125 m -55.089,-0.262 c 1.101,1.763 1.441,1.803 4.009,0.475 3.768,-1.949 3.542,-2.4 -1.202,-2.4 -3.707,0 -3.918,0.145 -2.807,1.925 m 184.815,1.016 c 0,0.518 0.445,1.216 0.989,1.552 0.566,0.35 0.734,-0.051 0.393,-0.941 -0.665,-1.732 -1.382,-2.049 -1.382,-0.611 M 116.682,180 c -0.627,1.375 -0.799,2.5 -0.383,2.5 1.572,0 5.21,-3.177 4.659,-4.068 -1.06,-1.715 -3.126,-0.957 -4.276,1.568 M 56,179.5 c -0.34,0.55 0.335,1 1.5,1 1.165,0 1.84,-0.45 1.5,-1 -0.34,-0.55 -1.015,-1 -1.5,-1 -0.485,0 -1.16,0.45 -1.5,1 m 242.5,1.5 c 3.272,1.87 5.045,1.848 2.559,-0.032 -1.068,-0.807 -2.643,-1.452 -3.5,-1.433 -0.999,0.023 -0.661,0.549 0.941,1.465 m 9.18,2.691 c 0.224,1.532 1.33,2.451 3.68,3.057 4.428,1.142 4.905,0.426 1.792,-2.687 -3.22,-3.22 -5.914,-3.402 -5.472,-0.37 m -225.125,2.732 c -2.137,3.001 -2.142,3.077 -0.205,3.077 1.093,0 2.766,0.299 3.718,0.664 1.484,0.57 1.629,0.249 1.011,-2.25 -1.111,-4.496 -2.143,-4.836 -4.524,-1.491 M 297,185.911 c 3.121,2.619 4.5,3.162 4.5,1.774 0,-0.448 -1.687,-1.597 -3.75,-2.553 l -3.75,-1.739 3,2.518 m -156.421,2.257 c -0.043,0.643 -0.338,1.993 -0.655,3 -0.547,1.741 -0.518,1.744 0.571,0.044 0.631,-0.983 0.925,-2.333 0.655,-3 -0.355,-0.875 -0.514,-0.887 -0.571,-0.044 M 224,191.5 c 4.087,4.186 5.678,5.232 3.42,2.25 -2.945,-3.89 -5.323,-6.25 -6.297,-6.25 -0.566,0 0.729,1.8 2.877,4 m -166.364,0.336 c -1.406,1.694 -4.305,9.829 -3.713,10.42 1.124,1.125 2.577,-1.182 2.577,-4.093 0,-1.77 0.701,-4.218 1.557,-5.44 1.688,-2.411 1.381,-3.058 -0.421,-0.887 m 67.145,-0.086 c -0.531,0.688 -1.711,3.173 -2.624,5.524 l -1.66,4.274 2.501,-1.639 c 1.376,-0.901 2.551,-1.925 2.612,-2.274 0.328,-1.902 0.618,-7.135 0.395,-7.135 -0.143,0 -0.694,0.563 -1.224,1.25 m -63.533,2.638 c -3.086,3.667 -3.445,5.112 -1.271,5.112 1.908,0 4.787,-4.391 4.354,-6.64 -0.271,-1.408 -0.858,-1.117 -3.083,1.528 m 7.919,-0.221 c -0.367,0.366 -0.667,1.131 -0.667,1.7 0,0.626 0.466,0.567 1.183,-0.15 0.651,-0.651 0.951,-1.416 0.667,-1.7 -0.284,-0.284 -0.817,-0.217 -1.183,0.15 m 21.083,9.905 c -3.738,2.028 -3.511,2.873 0.25,0.928 1.65,-0.853 3,-1.765 3,-2.026 0,-0.643 -0.107,-0.607 -3.25,1.098 m 141.25,4.806 c 0,0.207 0.788,0.995 1.75,1.75 1.586,1.243 1.621,1.208 0.378,-0.378 -1.307,-1.666 -2.128,-2.195 -2.128,-1.372 m 3.673,10.686 c 0.645,0.79 2.67,2.307 4.5,3.372 2.088,1.215 2.89,1.402 2.154,0.5 -0.645,-0.79 -2.67,-2.307 -4.5,-3.372 -2.088,-1.215 -2.89,-1.402 -2.154,-0.5 m 5.327,9.126 c 0,2.122 6.811,8.327 13,11.843 5.16,2.931 5.283,3.087 2,2.523 -1.925,-0.33 -5.175,-1.428 -7.223,-2.44 -2.048,-1.011 -3.438,-1.339 -3.088,-0.727 1.624,2.837 11.501,16.61 12.239,17.067 0.458,0.283 1.734,-3.076 2.835,-7.463 l 2.004,-7.977 -3.828,-4.348 c -2.489,-2.828 -5.682,-5.069 -9.133,-6.411 -2.918,-1.134 -6.094,-2.38 -7.056,-2.767 -1.17,-0.471 -1.75,-0.239 -1.75,0.7 M 303.014,240 c 0.345,1.65 1.046,3.428 1.557,3.95 1.507,1.541 1.028,-1.67 -0.663,-4.45 l -1.522,-2.5 0.628,3 m 12.486,-0.122 c 0,0.207 0.788,0.995 1.75,1.75 1.586,1.243 1.621,1.208 0.378,-0.378 -1.307,-1.666 -2.128,-2.195 -2.128,-1.372 m -2,11.622 c 0.589,1.1 1.295,2 1.57,2 0.275,0 0.019,-0.9 -0.57,-2 -0.589,-1.1 -1.295,-2 -1.57,-2 -0.275,0 -0.019,0.9 0.57,2 m -35.969,1.5 c 0,0.55 0.436,1.675 0.969,2.5 0.533,0.825 0.969,1.05 0.969,0.5 0,-0.55 -0.436,-1.675 -0.969,-2.5 -0.533,-0.825 -0.969,-1.05 -0.969,-0.5 m -25.184,5.557 c 1.212,2.111 1.93,2.543 2.895,1.742 1.529,-1.269 0.188,-3.323 -2.657,-4.066 -1.75,-0.458 -1.763,-0.333 -0.238,2.324 m -5.321,2.193 c 0.866,4.112 2.115,5.509 3.597,4.027 0.831,-0.831 0.552,-1.924 -1.068,-4.2 -2.793,-3.922 -3.384,-3.882 -2.529,0.173 m 57.553,-0.667 c 0.048,1.165 0.285,1.402 0.604,0.605 0.289,-0.722 0.253,-1.585 -0.079,-1.917 -0.332,-0.332 -0.568,0.258 -0.525,1.312 m -8.847,6.417 c 0,1.925 0.206,2.712 0.457,1.75 0.252,-0.962 0.252,-2.538 0,-3.5 -0.251,-0.962 -0.457,-0.175 -0.457,1.75 m -35.389,1.25 c -0.215,1.238 -0.101,3.825 0.252,5.75 0.544,2.967 0.662,2.625 0.773,-2.25 0.135,-5.898 -0.332,-7.495 -1.025,-3.5 m 42.216,3.75 c -0.131,3.187 -3.648,11 -4.951,11 -0.545,0 -0.345,-1.236 0.445,-2.75 0.789,-1.512 1.437,-3.764 1.441,-5.003 0.005,-2.031 -0.317,-1.884 -3.285,1.5 -1.811,2.064 -3.853,5.05 -4.54,6.636 -1.245,2.878 -1.242,2.882 1.882,2.257 1.721,-0.344 5.113,-1.504 7.539,-2.577 3.728,-1.649 4.403,-2.384 4.365,-4.757 -0.025,-1.543 -0.663,-4.156 -1.419,-5.806 -1.348,-2.944 -1.375,-2.953 -1.477,-0.5 m -52.991,8.95 c -0.052,2.63 0.21,3.172 1.099,2.283 0.864,-0.864 0.881,-1.763 0.068,-3.45 -1.033,-2.144 -1.104,-2.073 -1.167,1.167 m -3.989,5.633 c 0.048,1.165 0.285,1.402 0.604,0.605 0.289,-0.722 0.253,-1.585 -0.079,-1.917 -0.332,-0.332 -0.568,0.258 -0.525,1.312 m 3.472,3.06 c 0.927,6.382 1.449,6.772 1.449,1.083 0,-2.535 -0.485,-4.908 -1.077,-5.274 -0.749,-0.462 -0.862,0.818 -0.372,4.191 m -43.813,-0.203 c -5.369,1.788 -10.056,3.545 -10.416,3.905 -0.361,0.36 3.245,0.655 8.011,0.655 5.075,0 8.667,-0.412 8.667,-0.994 0,-0.546 1.868,-2.346 4.15,-4 3.642,-2.638 3.857,-2.994 1.75,-2.911 -1.32,0.053 -6.793,1.558 -12.162,3.345 m 21.262,-2.725 c -5.482,2.037 -14.221,6.397 -13.755,6.863 0.308,0.308 1.392,0.123 2.408,-0.411 1.016,-0.535 3.753,-1.536 6.083,-2.225 2.329,-0.689 4.986,-2.083 5.905,-3.097 1.765,-1.951 1.731,-2.011 -0.641,-1.13 M 213.424,303.25 211,306 l 3,-2.5 c 1.65,-1.375 3.188,-2.613 3.417,-2.75 0.229,-0.137 -0.03,-0.25 -0.576,-0.25 -0.546,0 -2.083,1.238 -3.417,2.75 M 140.595,659 c -0.103,1.502 4.437,15.366 5.318,16.24 1.41,1.4 -0.676,-7.183 -2.976,-12.24 -1.25,-2.75 -2.304,-4.55 -2.342,-4 m 12.407,42.5 c 3.555,12.229 11.052,33.079 11.345,31.556 0.548,-2.847 -1.679,-16.041 -4.103,-24.306 -1.5,-5.114 -2.601,-7.25 -3.735,-7.25 -0.885,0 -2.2,-0.562 -2.921,-1.25 -1.073,-1.022 -1.18,-0.794 -0.586,1.25"
     stroke="none"
     fill="#000000"
     fill-rule="evenodd"
     id="path2" />
</svg>
