<?xml version="1.0" encoding="UTF-8"?>
<svg id="Layer_1" data-name="Layer 1" xmlns="http://www.w3.org/2000/svg" viewBox="0 0 5631.33 941.37">
  <defs>
    <style>
      .cls-1 {
        fill: #231f20;
        stroke-width: 0px;
      }
    </style>
  </defs>
  <path class="cls-1" d="m315.89,561.41s109.64,6.62,172.66,26.88,260.02,128.52,377.06,162.28c117.04,33.76,157.55,43.89,157.55,43.89,0,0,23.63,47.26,46.14,74.27,22.51,27.01,64.11,55.14,66.38,60.77s62.08,23.63,83.38,0,22.42-15.41,28.05-113.66c289.15,54.14,1708.34-142.48,1970.1-197.89,312.65-66.18,1156.87-104.74,1513.05-14.37,186.06,45.19,433.26,55.82,433.26,55.82,148.85,37.21,430.61,239.23,467.82,268.46-9.28-34.02-159.48-186.06-441.24-316.31-212.64-175.43-576.8-303.02-659.2-337.57S3789.29,29.44,2768.6,2.86c-717.68-29.24-1627.61,175.12-1997.9,195.38-16.84,2.7-104.44,12.8-156.99,6.74s-115.89,11.45-132.74,14.82-77.49-1.35-116.57-3.37-159.69-5.39-192.03-4.04-57.95,12.8-57.95,12.8c0,0-11.45,0-55.92,7.41s-70.22,39.02-53.23,60.64c14.82,18.87,159.69,39.75,264.8,53.9,14.82,6.06,11.45,24.26,2.02,32.34s-74.12,75.46-99.05,84.22-28.3,16.17-28.3,16.17c0,0-12.13-10.11-14.15-7.41s0,17.52,0,17.52l-11.45,8.09s-14.15-14.15-18.87-8.76-.67,20.21-.67,20.21l-8.76,4.04s-8.09-12.8-12.13-10.78.67,16.17.67,16.17l-18.19,9.43s-8.09-16.17-10.78-14.15-1.35,18.87-1.35,18.87c0,0-33.02,9.43-30.99,19.54s35.71,22.24,83.55,20.21,105.11-6.74,136.11-10.78,71.42-.67,74.79-.67"/>
</svg>